%TF.GenerationSoftware,KiCad,Pcbnew,10.0.6*%
%TF.CreationDate,2026-10-03T14:51:26-04:00*%
%TF.ProjectId,board,626f6172-642e-46b6-9963-61645f706362,rev?*%
%TF.SameCoordinates,Original*%
%TF.FileFunction,Copper,L2,Bot*%
%TF.FilePolarity,Positive*%
%FSLAX46Y46*%
G04 Gerber Fmt 4.6, Leading zero omitted, Abs format (unit mm)*
G04 Created by KiCad (PCBNEW 10.0.6) date 2026-10-03 14:51:26*
%MOMM*%
%LPD*%
G01*
G04 APERTURE LIST*
G04 Aperture macros list*
%AMRoundRect*
0 Rectangle with rounded corners*
0 $1 Rounding radius*
0 $2 $3 $4 $5 $6 $7 $8 $9 X,Y pos of 4 corners*
0 Add a 4 corners polygon primitive as box body*
4,1,4,$2,$3,$4,$5,$6,$7,$8,$9,$2,$3,0*
0 Add four circle primitives for the rounded corners*
1,1,$1+$1,$2,$3*
1,1,$1+$1,$4,$5*
1,1,$1+$1,$6,$7*
1,1,$1+$1,$8,$9*
0 Add four rect primitives between the rounded corners*
20,1,$1+$1,$2,$3,$4,$5,0*
20,1,$1+$1,$4,$5,$6,$7,0*
20,1,$1+$1,$6,$7,$8,$9,0*
20,1,$1+$1,$8,$9,$2,$3,0*%
G04 Aperture macros list end*
%TA.AperFunction,ComponentPad*%
%ADD10R,2.000000X2.000000*%
%TD*%
%TA.AperFunction,ComponentPad*%
%ADD11O,1.600000X2.000000*%
%TD*%
%TA.AperFunction,ComponentPad*%
%ADD12R,2.030000X1.730000*%
%TD*%
%TA.AperFunction,ComponentPad*%
%ADD13O,2.030000X1.730000*%
%TD*%
%TA.AperFunction,ComponentPad*%
%ADD14R,1.730000X2.030000*%
%TD*%
%TA.AperFunction,ComponentPad*%
%ADD15O,1.730000X2.030000*%
%TD*%
%TA.AperFunction,ComponentPad*%
%ADD16R,1.700000X1.700000*%
%TD*%
%TA.AperFunction,ComponentPad*%
%ADD17C,1.700000*%
%TD*%
%TA.AperFunction,ComponentPad*%
%ADD18C,3.500000*%
%TD*%
%TA.AperFunction,ComponentPad*%
%ADD19RoundRect,0.250000X-1.050000X-1.050000X1.050000X-1.050000X1.050000X1.050000X-1.050000X1.050000X0*%
%TD*%
%TA.AperFunction,ComponentPad*%
%ADD20C,2.600000*%
%TD*%
%TA.AperFunction,ComponentPad*%
%ADD21C,1.600000*%
%TD*%
%TA.AperFunction,ComponentPad*%
%ADD22RoundRect,0.250000X0.725000X-0.600000X0.725000X0.600000X-0.725000X0.600000X-0.725000X-0.600000X0*%
%TD*%
%TA.AperFunction,ComponentPad*%
%ADD23O,1.950000X1.700000*%
%TD*%
%TA.AperFunction,Conductor*%
%ADD24C,0.200000*%
%TD*%
%TA.AperFunction,Conductor*%
%ADD25C,1.500000*%
%TD*%
G04 APERTURE END LIST*
D10*
%TO.P,U1,1,~{RST}_1*%
%TO.N,unconnected-(U1-~{RST}-Pad1)*%
X117000000Y-92360000D03*
D11*
%TO.P,U1,2,A0_2*%
%TO.N,/AO*%
X119540000Y-92360000D03*
%TO.P,U1,3,D0_3*%
%TO.N,unconnected-(U1-D0-Pad3)*%
X122080000Y-92360000D03*
%TO.P,U1,4,SCK/D5_4*%
%TO.N,/LED_DATA*%
X124620000Y-92360000D03*
%TO.P,U1,5,MISO/D6_5*%
%TO.N,/DHT_DATA*%
X127160000Y-92360000D03*
%TO.P,U1,6,MOSI/D7_6*%
%TO.N,unconnected-(U1-MOSI{slash}D7-Pad6)*%
X129700000Y-92360000D03*
%TO.P,U1,7,CS/D8_7*%
%TO.N,unconnected-(U1-CS{slash}D8-Pad7)*%
X132240000Y-92360000D03*
%TO.P,U1,8,3V3_8*%
%TO.N,unconnected-(U1-3V3-Pad8)*%
X134780000Y-92360000D03*
%TO.P,U1,9,5V_9*%
%TO.N,+5V*%
X134780000Y-69500000D03*
%TO.P,U1,10,GND_10*%
%TO.N,GND*%
X132240000Y-69500000D03*
%TO.P,U1,11,D4_11*%
%TO.N,unconnected-(U1-D4-Pad11)*%
X129700000Y-69500000D03*
%TO.P,U1,12,D3_12*%
%TO.N,unconnected-(U1-D3-Pad12)*%
X127160000Y-69500000D03*
%TO.P,U1,13,SDA/D2_13*%
%TO.N,/PWM_2*%
X124620000Y-69500000D03*
%TO.P,U1,14,SCL/D1_14*%
%TO.N,/PWM_1*%
X122080000Y-69500000D03*
%TO.P,U1,15,RX_15*%
%TO.N,unconnected-(U1-RX-Pad15)*%
X119540000Y-69500000D03*
%TO.P,U1,16,TX_16*%
%TO.N,unconnected-(U1-TX-Pad16)*%
X117000000Y-69500000D03*
%TD*%
D12*
%TO.P,JFAN1,1,Pin_1_1*%
%TO.N,GND*%
X165000000Y-97000000D03*
D13*
%TO.P,JFAN1,2,Pin_2_2*%
%TO.N,+12V*%
X165000000Y-99540000D03*
%TO.P,JFAN1,3,Pin_3_3*%
%TO.N,unconnected-(JFAN1-Pin_3-Pad3)*%
X165000000Y-102080000D03*
%TO.P,JFAN1,4,Pin_4_4*%
%TO.N,/PWM_1*%
X165000000Y-104620000D03*
%TD*%
D14*
%TO.P,JFAN2,1,Pin_1_1*%
%TO.N,GND*%
X158000000Y-103000000D03*
D15*
%TO.P,JFAN2,2,Pin_2_2*%
%TO.N,+12V*%
X155460000Y-103000000D03*
%TO.P,JFAN2,3,Pin_3_3*%
%TO.N,unconnected-(JFAN2-Pin_3-Pad3)*%
X152920000Y-103000000D03*
%TO.P,JFAN2,4,Pin_4_4*%
%TO.N,/PWM_2*%
X150380000Y-103000000D03*
%TD*%
D16*
%TO.P,JMQ1,1,Pin_1_1*%
%TO.N,+5V*%
X155750000Y-71000000D03*
D17*
%TO.P,JMQ1,2,Pin_2_2*%
%TO.N,GND*%
X155750000Y-73540000D03*
%TO.P,JMQ1,3,Pin_3_3*%
%TO.N,unconnected-(JMQ1-Pin_3-Pad3)*%
X155750000Y-76080000D03*
%TO.P,JMQ1,4,Pin_4_4*%
%TO.N,/AO*%
X155750000Y-78620000D03*
%TD*%
D18*
%TO.P,F1,1*%
%TO.N,Net-(JPOW1-Pin_1)*%
X133050000Y-102000000D03*
%TO.P,F1,2*%
%TO.N,+12V*%
X142250000Y-102000000D03*
%TD*%
D19*
%TO.P,JPOW1,1,Pin_1_1*%
%TO.N,Net-(JPOW1-Pin_1)*%
X118455000Y-101422500D03*
D20*
%TO.P,JPOW1,2,Pin_2_2*%
%TO.N,GND*%
X123535000Y-101422500D03*
%TD*%
D21*
%TO.P,R1,1*%
%TO.N,/LED_R*%
X160750000Y-82940000D03*
%TO.P,R1,2*%
%TO.N,/LED_DATA*%
X160750000Y-90560000D03*
%TD*%
D16*
%TO.P,JBUCK1,1,Pin_1_1*%
%TO.N,+12V*%
X148750000Y-78620000D03*
D17*
%TO.P,JBUCK1,2,Pin_2_2*%
%TO.N,GND*%
X148750000Y-76080000D03*
%TO.P,JBUCK1,3,Pin_3_3*%
%TO.N,+5V*%
X148750000Y-73540000D03*
%TO.P,JBUCK1,4,Pin_4_4*%
%TO.N,GND*%
X148750000Y-71000000D03*
%TD*%
D22*
%TO.P,JLED1,1,Pin_1_1*%
%TO.N,+12V*%
X166250000Y-89250000D03*
D23*
%TO.P,JLED1,2,Pin_2_2*%
%TO.N,/LED_R*%
X166250000Y-86750000D03*
%TO.P,JLED1,3,Pin_3_3*%
%TO.N,GND*%
X166250000Y-84250000D03*
%TD*%
D16*
%TO.P,JDHT1,1,Pin_1_1*%
%TO.N,+5V*%
X165500000Y-71710000D03*
D17*
%TO.P,JDHT1,2,Pin_2_2*%
%TO.N,/DHT_DATA*%
X165500000Y-74250000D03*
%TO.P,JDHT1,3,Pin_3_3*%
%TO.N,GND*%
X165500000Y-76790000D03*
%TD*%
%TO.N,/PWM_2*%
D24*
X124620000Y-69500000D02*
X125721700Y-69500000D01*
X150380000Y-103000000D02*
X149213300Y-103000000D01*
X125721700Y-79508400D02*
X149213300Y-103000000D01*
X125721700Y-69500000D02*
X125721700Y-79508400D01*
%TO.N,/PWM_1*%
X151857900Y-106279200D02*
X122080000Y-76501300D01*
X165000000Y-104620000D02*
X165000000Y-105786700D01*
X122080000Y-76501300D02*
X122080000Y-69500000D01*
X165000000Y-105786700D02*
X164507500Y-106279200D01*
X164507500Y-106279200D02*
X151857900Y-106279200D01*
%TO.N,+12V*%
D25*
X148750000Y-80721700D02*
X155460000Y-87431700D01*
X162733300Y-99540000D02*
X162733300Y-94868400D01*
X166250000Y-89250000D02*
X166250000Y-91351700D01*
X165000000Y-99540000D02*
X162733300Y-99540000D01*
X155460000Y-87431700D02*
X155460000Y-103000000D01*
X148750000Y-78620000D02*
X148750000Y-80721700D01*
X162733300Y-94868400D02*
X166250000Y-91351700D01*
%TO.N,/LED_R*%
D24*
X162480000Y-82940000D02*
X166250000Y-86710000D01*
X160750000Y-82940000D02*
X162480000Y-82940000D01*
%TD*%
%TA.AperFunction,Conductor*%
%TO.N,GND*%
G36*
X167503736Y-66250726D02*
G01*
X167793796Y-66268271D01*
X167808659Y-66270076D01*
X168090797Y-66321780D01*
X168105334Y-66325363D01*
X168379182Y-66410698D01*
X168393163Y-66416000D01*
X168654734Y-66533724D01*
X168667987Y-66540680D01*
X168913458Y-66689071D01*
X168925776Y-66697573D01*
X169151573Y-66874474D01*
X169162781Y-66884404D01*
X169365595Y-67087218D01*
X169375525Y-67098426D01*
X169552422Y-67324217D01*
X169560928Y-67336541D01*
X169709319Y-67582012D01*
X169716277Y-67595269D01*
X169833994Y-67856823D01*
X169839304Y-67870825D01*
X169924635Y-68144664D01*
X169928219Y-68159202D01*
X169979923Y-68441340D01*
X169981728Y-68456205D01*
X169999274Y-68746263D01*
X169999500Y-68753750D01*
X169999500Y-105246249D01*
X169999274Y-105253736D01*
X169981728Y-105543794D01*
X169979923Y-105558659D01*
X169928219Y-105840797D01*
X169924635Y-105855335D01*
X169839304Y-106129174D01*
X169833994Y-106143176D01*
X169716277Y-106404730D01*
X169709319Y-106417987D01*
X169560928Y-106663458D01*
X169552422Y-106675782D01*
X169375525Y-106901573D01*
X169365595Y-106912781D01*
X169162781Y-107115595D01*
X169151573Y-107125525D01*
X168925782Y-107302422D01*
X168913458Y-107310928D01*
X168667987Y-107459319D01*
X168654730Y-107466277D01*
X168393176Y-107583994D01*
X168379174Y-107589304D01*
X168105335Y-107674635D01*
X168090797Y-107678219D01*
X167808659Y-107729923D01*
X167793794Y-107731728D01*
X167503736Y-107749274D01*
X167496249Y-107749500D01*
X115753751Y-107749500D01*
X115746264Y-107749274D01*
X115456205Y-107731728D01*
X115441340Y-107729923D01*
X115159202Y-107678219D01*
X115144664Y-107674635D01*
X114870825Y-107589304D01*
X114856827Y-107583995D01*
X114704096Y-107515256D01*
X114595269Y-107466277D01*
X114582012Y-107459319D01*
X114336541Y-107310928D01*
X114324217Y-107302422D01*
X114098426Y-107125525D01*
X114087218Y-107115595D01*
X113884404Y-106912781D01*
X113874474Y-106901573D01*
X113857338Y-106879701D01*
X113697573Y-106675776D01*
X113689071Y-106663458D01*
X113540680Y-106417987D01*
X113533722Y-106404730D01*
X113416000Y-106143163D01*
X113410698Y-106129182D01*
X113325363Y-105855334D01*
X113321780Y-105840797D01*
X113307752Y-105764250D01*
X113270075Y-105558657D01*
X113268271Y-105543794D01*
X113266200Y-105509564D01*
X113250726Y-105253736D01*
X113250500Y-105246249D01*
X113250500Y-100322483D01*
X116654500Y-100322483D01*
X116654500Y-102522501D01*
X116654501Y-102522518D01*
X116665000Y-102625296D01*
X116665001Y-102625299D01*
X116713885Y-102772819D01*
X116720186Y-102791834D01*
X116812288Y-102941156D01*
X116936344Y-103065212D01*
X117085666Y-103157314D01*
X117252203Y-103212499D01*
X117354991Y-103223000D01*
X119555008Y-103222999D01*
X119657797Y-103212499D01*
X119824334Y-103157314D01*
X119973656Y-103065212D01*
X120097712Y-102941156D01*
X120189814Y-102791834D01*
X120244999Y-102625297D01*
X120255500Y-102522509D01*
X120255499Y-101304514D01*
X121735000Y-101304514D01*
X121735000Y-101540485D01*
X121765799Y-101774414D01*
X121826870Y-102002337D01*
X121917160Y-102220319D01*
X121917165Y-102220328D01*
X122035144Y-102424671D01*
X122035145Y-102424672D01*
X122097721Y-102506223D01*
X122933958Y-101669987D01*
X122958978Y-101730390D01*
X123030112Y-101836851D01*
X123120649Y-101927388D01*
X123227110Y-101998522D01*
X123287511Y-102023541D01*
X122451275Y-102859777D01*
X122532827Y-102922354D01*
X122532828Y-102922355D01*
X122737171Y-103040334D01*
X122737180Y-103040339D01*
X122955163Y-103130629D01*
X122955161Y-103130629D01*
X123183085Y-103191700D01*
X123417014Y-103222499D01*
X123417029Y-103222500D01*
X123652971Y-103222500D01*
X123652985Y-103222499D01*
X123886914Y-103191700D01*
X124114837Y-103130629D01*
X124332819Y-103040339D01*
X124332828Y-103040334D01*
X124537181Y-102922350D01*
X124618723Y-102859779D01*
X124618723Y-102859776D01*
X123782487Y-102023541D01*
X123842890Y-101998522D01*
X123949351Y-101927388D01*
X124039888Y-101836851D01*
X124111022Y-101730390D01*
X124136041Y-101669987D01*
X124972276Y-102506223D01*
X124972279Y-102506223D01*
X125034850Y-102424681D01*
X125152834Y-102220328D01*
X125152839Y-102220319D01*
X125243128Y-102002339D01*
X125283282Y-101852486D01*
X130799500Y-101852486D01*
X130799500Y-102147513D01*
X130809087Y-102220328D01*
X130838007Y-102439993D01*
X130908154Y-102701786D01*
X130914361Y-102724951D01*
X130914364Y-102724961D01*
X131027254Y-102997500D01*
X131027258Y-102997510D01*
X131174761Y-103252993D01*
X131354352Y-103487040D01*
X131354358Y-103487047D01*
X131562952Y-103695641D01*
X131562959Y-103695647D01*
X131797006Y-103875238D01*
X132052489Y-104022741D01*
X132052490Y-104022741D01*
X132052493Y-104022743D01*
X132230872Y-104096630D01*
X132293035Y-104122379D01*
X132325048Y-104135639D01*
X132610007Y-104211993D01*
X132902494Y-104250500D01*
X132902501Y-104250500D01*
X133197499Y-104250500D01*
X133197506Y-104250500D01*
X133489993Y-104211993D01*
X133774952Y-104135639D01*
X134047507Y-104022743D01*
X134302994Y-103875238D01*
X134537042Y-103695646D01*
X134745646Y-103487042D01*
X134925238Y-103252994D01*
X135021746Y-103085837D01*
X136199500Y-103085837D01*
X136199500Y-103314162D01*
X136235215Y-103539660D01*
X136305770Y-103756803D01*
X136409421Y-103960228D01*
X136543621Y-104144937D01*
X136705063Y-104306379D01*
X136889772Y-104440579D01*
X136970820Y-104481875D01*
X137093196Y-104544229D01*
X137093198Y-104544229D01*
X137093201Y-104544231D01*
X137160276Y-104566025D01*
X137310339Y-104614784D01*
X137535838Y-104650500D01*
X137535843Y-104650500D01*
X137764162Y-104650500D01*
X137989660Y-104614784D01*
X138206799Y-104544231D01*
X138410228Y-104440579D01*
X138594937Y-104306379D01*
X138756379Y-104144937D01*
X138890579Y-103960228D01*
X138994231Y-103756799D01*
X139064784Y-103539660D01*
X139073118Y-103487040D01*
X139100500Y-103314162D01*
X139100500Y-103085837D01*
X139064784Y-102860339D01*
X139026506Y-102742533D01*
X138994231Y-102643201D01*
X138994229Y-102643198D01*
X138994229Y-102643196D01*
X138932739Y-102522516D01*
X138890579Y-102439772D01*
X138756379Y-102255063D01*
X138594937Y-102093621D01*
X138521824Y-102040501D01*
X138410229Y-101959421D01*
X138409636Y-101959119D01*
X138409247Y-101958921D01*
X138409246Y-101958920D01*
X138409245Y-101958920D01*
X138333027Y-101920085D01*
X138206803Y-101855770D01*
X138196696Y-101852486D01*
X139999500Y-101852486D01*
X139999500Y-102147513D01*
X140009087Y-102220328D01*
X140038007Y-102439993D01*
X140108154Y-102701786D01*
X140114361Y-102724951D01*
X140114364Y-102724961D01*
X140227254Y-102997500D01*
X140227258Y-102997510D01*
X140374761Y-103252993D01*
X140554352Y-103487040D01*
X140554358Y-103487047D01*
X140762952Y-103695641D01*
X140762959Y-103695647D01*
X140997006Y-103875238D01*
X141252489Y-104022741D01*
X141252490Y-104022741D01*
X141252493Y-104022743D01*
X141430872Y-104096630D01*
X141493035Y-104122379D01*
X141525048Y-104135639D01*
X141810007Y-104211993D01*
X142102494Y-104250500D01*
X142102501Y-104250500D01*
X142397499Y-104250500D01*
X142397506Y-104250500D01*
X142689993Y-104211993D01*
X142974952Y-104135639D01*
X143247507Y-104022743D01*
X143502994Y-103875238D01*
X143737042Y-103695646D01*
X143945646Y-103487042D01*
X144125238Y-103252994D01*
X144272743Y-102997507D01*
X144385639Y-102724952D01*
X144461993Y-102439993D01*
X144500500Y-102147506D01*
X144500500Y-101852494D01*
X144461993Y-101560007D01*
X144385639Y-101275048D01*
X144272743Y-101002493D01*
X144161607Y-100810000D01*
X144125238Y-100747006D01*
X143945647Y-100512959D01*
X143945641Y-100512952D01*
X143737047Y-100304358D01*
X143737040Y-100304352D01*
X143502993Y-100124761D01*
X143247510Y-99977258D01*
X143247500Y-99977254D01*
X142974961Y-99864364D01*
X142974954Y-99864362D01*
X142974952Y-99864361D01*
X142689993Y-99788007D01*
X142627564Y-99779788D01*
X142397513Y-99749500D01*
X142397506Y-99749500D01*
X142102494Y-99749500D01*
X142102486Y-99749500D01*
X141824085Y-99786153D01*
X141810007Y-99788007D01*
X141642739Y-99832826D01*
X141525048Y-99864361D01*
X141525038Y-99864364D01*
X141252499Y-99977254D01*
X141252489Y-99977258D01*
X140997006Y-100124761D01*
X140762959Y-100304352D01*
X140762952Y-100304358D01*
X140554358Y-100512952D01*
X140554352Y-100512959D01*
X140374761Y-100747006D01*
X140227258Y-101002489D01*
X140227254Y-101002499D01*
X140114364Y-101275038D01*
X140114361Y-101275048D01*
X140039127Y-101555829D01*
X140038008Y-101560004D01*
X140038006Y-101560015D01*
X139999500Y-101852486D01*
X138196696Y-101852486D01*
X137989660Y-101785215D01*
X137764162Y-101749500D01*
X137764157Y-101749500D01*
X137535843Y-101749500D01*
X137535838Y-101749500D01*
X137310339Y-101785215D01*
X137093196Y-101855770D01*
X136889771Y-101959421D01*
X136705061Y-102093622D01*
X136543622Y-102255061D01*
X136409421Y-102439771D01*
X136305770Y-102643196D01*
X136235215Y-102860339D01*
X136199500Y-103085837D01*
X135021746Y-103085837D01*
X135072743Y-102997507D01*
X135185639Y-102724952D01*
X135261993Y-102439993D01*
X135300500Y-102147506D01*
X135300500Y-101852494D01*
X135261993Y-101560007D01*
X135185639Y-101275048D01*
X135072743Y-101002493D01*
X134961607Y-100810000D01*
X134925238Y-100747006D01*
X134745647Y-100512959D01*
X134745641Y-100512952D01*
X134537047Y-100304358D01*
X134537040Y-100304352D01*
X134302993Y-100124761D01*
X134047510Y-99977258D01*
X134047500Y-99977254D01*
X133774961Y-99864364D01*
X133774954Y-99864362D01*
X133774952Y-99864361D01*
X133489993Y-99788007D01*
X133427564Y-99779788D01*
X133197513Y-99749500D01*
X133197506Y-99749500D01*
X132902494Y-99749500D01*
X132902486Y-99749500D01*
X132624085Y-99786153D01*
X132610007Y-99788007D01*
X132442739Y-99832826D01*
X132325048Y-99864361D01*
X132325038Y-99864364D01*
X132052499Y-99977254D01*
X132052489Y-99977258D01*
X131797006Y-100124761D01*
X131562959Y-100304352D01*
X131562952Y-100304358D01*
X131354358Y-100512952D01*
X131354352Y-100512959D01*
X131174761Y-100747006D01*
X131027258Y-101002489D01*
X131027254Y-101002499D01*
X130914364Y-101275038D01*
X130914361Y-101275048D01*
X130839127Y-101555829D01*
X130838008Y-101560004D01*
X130838006Y-101560015D01*
X130799500Y-101852486D01*
X125283282Y-101852486D01*
X125292967Y-101816341D01*
X125292967Y-101816340D01*
X125304200Y-101774415D01*
X125334999Y-101540485D01*
X125335000Y-101540471D01*
X125335000Y-101304528D01*
X125334999Y-101304514D01*
X125304200Y-101070585D01*
X125243129Y-100842662D01*
X125152839Y-100624680D01*
X125152834Y-100624671D01*
X125034855Y-100420328D01*
X125034854Y-100420327D01*
X124972277Y-100338775D01*
X124136041Y-101175011D01*
X124111022Y-101114610D01*
X124039888Y-101008149D01*
X123949351Y-100917612D01*
X123842890Y-100846478D01*
X123782488Y-100821458D01*
X124618723Y-99985221D01*
X124537172Y-99922645D01*
X124537171Y-99922644D01*
X124332828Y-99804665D01*
X124332819Y-99804660D01*
X124114836Y-99714370D01*
X124114838Y-99714370D01*
X123886914Y-99653299D01*
X123652985Y-99622500D01*
X123417014Y-99622500D01*
X123183085Y-99653299D01*
X122955162Y-99714370D01*
X122737180Y-99804660D01*
X122737171Y-99804665D01*
X122532828Y-99922644D01*
X122532818Y-99922650D01*
X122451275Y-99985220D01*
X122451275Y-99985221D01*
X123287512Y-100821458D01*
X123227110Y-100846478D01*
X123120649Y-100917612D01*
X123030112Y-101008149D01*
X122958978Y-101114610D01*
X122933958Y-101175012D01*
X122097721Y-100338775D01*
X122097720Y-100338775D01*
X122035150Y-100420318D01*
X122035144Y-100420328D01*
X121917165Y-100624671D01*
X121917160Y-100624680D01*
X121826870Y-100842662D01*
X121765799Y-101070585D01*
X121735000Y-101304514D01*
X120255499Y-101304514D01*
X120255499Y-100322492D01*
X120244999Y-100219703D01*
X120189814Y-100053166D01*
X120097712Y-99903844D01*
X119973656Y-99779788D01*
X119824334Y-99687686D01*
X119657797Y-99632501D01*
X119657795Y-99632500D01*
X119555010Y-99622000D01*
X117354998Y-99622000D01*
X117354981Y-99622001D01*
X117252203Y-99632500D01*
X117252200Y-99632501D01*
X117085668Y-99687685D01*
X117085663Y-99687687D01*
X116936342Y-99779789D01*
X116812289Y-99903842D01*
X116720187Y-100053163D01*
X116720185Y-100053168D01*
X116713886Y-100072178D01*
X116665001Y-100219703D01*
X116665001Y-100219704D01*
X116665000Y-100219704D01*
X116654500Y-100322483D01*
X113250500Y-100322483D01*
X113250500Y-93834000D01*
X113270185Y-93766961D01*
X113322989Y-93721206D01*
X113374500Y-93710000D01*
X115591102Y-93710000D01*
X115658141Y-93729685D01*
X115665413Y-93734733D01*
X115757669Y-93803796D01*
X115757671Y-93803797D01*
X115892517Y-93854091D01*
X115892516Y-93854091D01*
X115899444Y-93854835D01*
X115952127Y-93860500D01*
X118047872Y-93860499D01*
X118107483Y-93854091D01*
X118242331Y-93803796D01*
X118357546Y-93717546D01*
X118443796Y-93602331D01*
X118457688Y-93565082D01*
X118499558Y-93509151D01*
X118565022Y-93484733D01*
X118633295Y-93499584D01*
X118661551Y-93520736D01*
X118692786Y-93551971D01*
X118842626Y-93660834D01*
X118858390Y-93672287D01*
X118947212Y-93717544D01*
X119040776Y-93765218D01*
X119040778Y-93765218D01*
X119040781Y-93765220D01*
X119145137Y-93799127D01*
X119235465Y-93828477D01*
X119270336Y-93834000D01*
X119437648Y-93860500D01*
X119437649Y-93860500D01*
X119642351Y-93860500D01*
X119642352Y-93860500D01*
X119844534Y-93828477D01*
X120039219Y-93765220D01*
X120221610Y-93672287D01*
X120317897Y-93602331D01*
X120387213Y-93551971D01*
X120387215Y-93551968D01*
X120387219Y-93551966D01*
X120531966Y-93407219D01*
X120531968Y-93407215D01*
X120531971Y-93407213D01*
X120652284Y-93241614D01*
X120652285Y-93241613D01*
X120652287Y-93241610D01*
X120699516Y-93148917D01*
X120747489Y-93098123D01*
X120815310Y-93081328D01*
X120881445Y-93103865D01*
X120920485Y-93148919D01*
X120967715Y-93241614D01*
X121088028Y-93407213D01*
X121232786Y-93551971D01*
X121382626Y-93660834D01*
X121398390Y-93672287D01*
X121487212Y-93717544D01*
X121580776Y-93765218D01*
X121580778Y-93765218D01*
X121580781Y-93765220D01*
X121685137Y-93799127D01*
X121775465Y-93828477D01*
X121810336Y-93834000D01*
X121977648Y-93860500D01*
X121977649Y-93860500D01*
X122182351Y-93860500D01*
X122182352Y-93860500D01*
X122384534Y-93828477D01*
X122579219Y-93765220D01*
X122761610Y-93672287D01*
X122857897Y-93602331D01*
X122927213Y-93551971D01*
X122927215Y-93551968D01*
X122927219Y-93551966D01*
X123071966Y-93407219D01*
X123071968Y-93407215D01*
X123071971Y-93407213D01*
X123192284Y-93241614D01*
X123192285Y-93241613D01*
X123192287Y-93241610D01*
X123239516Y-93148917D01*
X123287489Y-93098123D01*
X123355310Y-93081328D01*
X123421445Y-93103865D01*
X123460485Y-93148919D01*
X123507715Y-93241614D01*
X123628028Y-93407213D01*
X123772786Y-93551971D01*
X123922626Y-93660834D01*
X123938390Y-93672287D01*
X124027212Y-93717544D01*
X124120776Y-93765218D01*
X124120778Y-93765218D01*
X124120781Y-93765220D01*
X124225137Y-93799127D01*
X124315465Y-93828477D01*
X124350336Y-93834000D01*
X124517648Y-93860500D01*
X124517649Y-93860500D01*
X124722351Y-93860500D01*
X124722352Y-93860500D01*
X124924534Y-93828477D01*
X125119219Y-93765220D01*
X125301610Y-93672287D01*
X125397897Y-93602331D01*
X125467213Y-93551971D01*
X125467215Y-93551968D01*
X125467219Y-93551966D01*
X125611966Y-93407219D01*
X125611968Y-93407215D01*
X125611971Y-93407213D01*
X125732284Y-93241614D01*
X125732285Y-93241613D01*
X125732287Y-93241610D01*
X125779516Y-93148917D01*
X125827489Y-93098123D01*
X125895310Y-93081328D01*
X125961445Y-93103865D01*
X126000485Y-93148919D01*
X126047715Y-93241614D01*
X126168028Y-93407213D01*
X126312786Y-93551971D01*
X126462626Y-93660834D01*
X126478390Y-93672287D01*
X126567212Y-93717544D01*
X126660776Y-93765218D01*
X126660778Y-93765218D01*
X126660781Y-93765220D01*
X126765137Y-93799127D01*
X126855465Y-93828477D01*
X126890336Y-93834000D01*
X127057648Y-93860500D01*
X127057649Y-93860500D01*
X127262351Y-93860500D01*
X127262352Y-93860500D01*
X127464534Y-93828477D01*
X127659219Y-93765220D01*
X127841610Y-93672287D01*
X127937897Y-93602331D01*
X128007213Y-93551971D01*
X128007215Y-93551968D01*
X128007219Y-93551966D01*
X128151966Y-93407219D01*
X128151968Y-93407215D01*
X128151971Y-93407213D01*
X128272284Y-93241614D01*
X128272285Y-93241613D01*
X128272287Y-93241610D01*
X128319516Y-93148917D01*
X128367489Y-93098123D01*
X128435310Y-93081328D01*
X128501445Y-93103865D01*
X128540485Y-93148919D01*
X128587715Y-93241614D01*
X128708028Y-93407213D01*
X128852786Y-93551971D01*
X129002626Y-93660834D01*
X129018390Y-93672287D01*
X129107212Y-93717544D01*
X129200776Y-93765218D01*
X129200778Y-93765218D01*
X129200781Y-93765220D01*
X129305137Y-93799127D01*
X129395465Y-93828477D01*
X129430336Y-93834000D01*
X129597648Y-93860500D01*
X129597649Y-93860500D01*
X129802351Y-93860500D01*
X129802352Y-93860500D01*
X130004534Y-93828477D01*
X130199219Y-93765220D01*
X130381610Y-93672287D01*
X130477897Y-93602331D01*
X130547213Y-93551971D01*
X130547215Y-93551968D01*
X130547219Y-93551966D01*
X130691966Y-93407219D01*
X130691968Y-93407215D01*
X130691971Y-93407213D01*
X130812284Y-93241614D01*
X130812285Y-93241613D01*
X130812287Y-93241610D01*
X130859516Y-93148917D01*
X130907489Y-93098123D01*
X130975310Y-93081328D01*
X131041445Y-93103865D01*
X131080485Y-93148919D01*
X131127715Y-93241614D01*
X131248028Y-93407213D01*
X131392786Y-93551971D01*
X131542626Y-93660834D01*
X131558390Y-93672287D01*
X131647212Y-93717544D01*
X131740776Y-93765218D01*
X131740778Y-93765218D01*
X131740781Y-93765220D01*
X131845137Y-93799127D01*
X131935465Y-93828477D01*
X131970336Y-93834000D01*
X132137648Y-93860500D01*
X132137649Y-93860500D01*
X132342351Y-93860500D01*
X132342352Y-93860500D01*
X132544534Y-93828477D01*
X132739219Y-93765220D01*
X132921610Y-93672287D01*
X133017897Y-93602331D01*
X133087213Y-93551971D01*
X133087215Y-93551968D01*
X133087219Y-93551966D01*
X133231966Y-93407219D01*
X133231968Y-93407215D01*
X133231971Y-93407213D01*
X133352284Y-93241614D01*
X133352285Y-93241613D01*
X133352287Y-93241610D01*
X133399516Y-93148917D01*
X133447489Y-93098123D01*
X133515310Y-93081328D01*
X133581445Y-93103865D01*
X133620485Y-93148919D01*
X133667715Y-93241614D01*
X133788028Y-93407213D01*
X133932786Y-93551971D01*
X134082626Y-93660834D01*
X134098390Y-93672287D01*
X134187212Y-93717544D01*
X134280776Y-93765218D01*
X134280778Y-93765218D01*
X134280781Y-93765220D01*
X134385137Y-93799127D01*
X134475465Y-93828477D01*
X134510336Y-93834000D01*
X134677648Y-93860500D01*
X134677649Y-93860500D01*
X134882351Y-93860500D01*
X134882352Y-93860500D01*
X135084534Y-93828477D01*
X135279219Y-93765220D01*
X135461610Y-93672287D01*
X135557897Y-93602331D01*
X135627213Y-93551971D01*
X135627215Y-93551968D01*
X135627219Y-93551966D01*
X135771966Y-93407219D01*
X135771968Y-93407215D01*
X135771971Y-93407213D01*
X135824732Y-93334590D01*
X135892287Y-93241610D01*
X135985220Y-93059219D01*
X136048477Y-92864534D01*
X136080500Y-92662352D01*
X136080500Y-92057648D01*
X136048477Y-91855466D01*
X136040763Y-91831726D01*
X136019127Y-91765137D01*
X135985220Y-91660781D01*
X135985218Y-91660778D01*
X135985218Y-91660776D01*
X135919893Y-91532570D01*
X135906997Y-91463901D01*
X135933273Y-91399160D01*
X135990380Y-91358903D01*
X136060185Y-91355911D01*
X136118059Y-91388594D01*
X151373039Y-106643574D01*
X151373049Y-106643585D01*
X151377379Y-106647915D01*
X151377380Y-106647916D01*
X151489184Y-106759720D01*
X151575995Y-106809839D01*
X151575997Y-106809841D01*
X151614051Y-106831811D01*
X151626115Y-106838777D01*
X151778843Y-106879701D01*
X151778846Y-106879701D01*
X151944553Y-106879701D01*
X151944569Y-106879700D01*
X164420831Y-106879700D01*
X164420847Y-106879701D01*
X164428443Y-106879701D01*
X164586554Y-106879701D01*
X164586557Y-106879701D01*
X164739285Y-106838777D01*
X164789404Y-106809839D01*
X164876216Y-106759720D01*
X164988020Y-106647916D01*
X164988020Y-106647914D01*
X164998228Y-106637707D01*
X164998230Y-106637704D01*
X165358506Y-106277428D01*
X165358511Y-106277424D01*
X165368714Y-106267220D01*
X165368716Y-106267220D01*
X165480520Y-106155416D01*
X165542874Y-106047415D01*
X165559577Y-106018485D01*
X165570267Y-105978588D01*
X165606630Y-105918929D01*
X165651724Y-105892750D01*
X165674170Y-105885458D01*
X165865678Y-105787880D01*
X166039563Y-105661545D01*
X166191545Y-105509563D01*
X166317880Y-105335678D01*
X166415458Y-105144170D01*
X166481876Y-104939755D01*
X166515500Y-104727467D01*
X166515500Y-104512533D01*
X166481876Y-104300245D01*
X166481875Y-104300241D01*
X166481875Y-104300240D01*
X166415459Y-104095832D01*
X166415458Y-104095829D01*
X166317879Y-103904321D01*
X166289803Y-103865678D01*
X166191545Y-103730437D01*
X166039563Y-103578455D01*
X165897507Y-103475245D01*
X165863198Y-103450318D01*
X165820532Y-103394988D01*
X165814553Y-103325375D01*
X165847159Y-103263580D01*
X165863198Y-103249682D01*
X165899925Y-103222998D01*
X166039563Y-103121545D01*
X166191545Y-102969563D01*
X166317880Y-102795678D01*
X166384094Y-102665724D01*
X166432068Y-102614929D01*
X166499889Y-102598134D01*
X166566024Y-102620671D01*
X166582260Y-102634339D01*
X166649707Y-102701786D01*
X166649711Y-102701789D01*
X166780814Y-102789390D01*
X166780827Y-102789397D01*
X166926498Y-102849735D01*
X166926503Y-102849737D01*
X167081153Y-102880499D01*
X167081156Y-102880500D01*
X167081158Y-102880500D01*
X167238844Y-102880500D01*
X167238845Y-102880499D01*
X167393497Y-102849737D01*
X167524008Y-102795678D01*
X167539172Y-102789397D01*
X167539172Y-102789396D01*
X167539179Y-102789394D01*
X167670289Y-102701789D01*
X167781789Y-102590289D01*
X167869394Y-102459179D01*
X167929737Y-102313497D01*
X167960500Y-102158842D01*
X167960500Y-102001158D01*
X167960500Y-102001155D01*
X167960499Y-102001153D01*
X167935928Y-101877627D01*
X167929737Y-101846503D01*
X167913977Y-101808455D01*
X167869397Y-101700827D01*
X167869390Y-101700814D01*
X167781789Y-101569711D01*
X167781786Y-101569707D01*
X167670292Y-101458213D01*
X167670288Y-101458210D01*
X167539185Y-101370609D01*
X167539172Y-101370602D01*
X167393501Y-101310264D01*
X167393489Y-101310261D01*
X167238845Y-101279500D01*
X167238842Y-101279500D01*
X167081158Y-101279500D01*
X167081155Y-101279500D01*
X166926510Y-101310261D01*
X166926498Y-101310264D01*
X166780827Y-101370602D01*
X166780814Y-101370609D01*
X166649711Y-101458210D01*
X166582260Y-101525661D01*
X166520936Y-101559145D01*
X166451245Y-101554160D01*
X166395311Y-101512289D01*
X166384094Y-101494274D01*
X166359793Y-101446582D01*
X166317880Y-101364322D01*
X166191545Y-101190437D01*
X166039563Y-101038455D01*
X166039559Y-101038452D01*
X165863198Y-100910318D01*
X165820532Y-100854988D01*
X165814553Y-100785375D01*
X165847159Y-100723580D01*
X165863198Y-100709682D01*
X165891381Y-100689205D01*
X166039563Y-100581545D01*
X166191545Y-100429563D01*
X166317880Y-100255678D01*
X166415458Y-100064170D01*
X166429800Y-100020029D01*
X166481875Y-99859759D01*
X166481875Y-99859758D01*
X166481876Y-99859755D01*
X166515500Y-99647467D01*
X166515500Y-99432533D01*
X166481876Y-99220245D01*
X166481875Y-99220241D01*
X166481875Y-99220240D01*
X166415459Y-99015832D01*
X166415458Y-99015829D01*
X166317879Y-98824321D01*
X166191545Y-98650437D01*
X166096630Y-98555522D01*
X166063145Y-98494199D01*
X166068129Y-98424507D01*
X166110001Y-98368574D01*
X166140979Y-98351659D01*
X166257084Y-98308355D01*
X166257093Y-98308350D01*
X166372187Y-98222190D01*
X166372190Y-98222187D01*
X166458350Y-98107093D01*
X166458354Y-98107086D01*
X166508596Y-97972379D01*
X166508598Y-97972372D01*
X166514999Y-97912844D01*
X166515000Y-97912827D01*
X166515000Y-97250000D01*
X165444560Y-97250000D01*
X165475245Y-97196853D01*
X165510000Y-97067143D01*
X165510000Y-96932857D01*
X165475245Y-96803147D01*
X165444560Y-96750000D01*
X166515000Y-96750000D01*
X166515000Y-96087172D01*
X166514999Y-96087155D01*
X166508598Y-96027627D01*
X166508596Y-96027620D01*
X166458354Y-95892913D01*
X166458350Y-95892906D01*
X166372190Y-95777812D01*
X166372187Y-95777809D01*
X166257093Y-95691649D01*
X166257086Y-95691645D01*
X166122379Y-95641403D01*
X166122372Y-95641401D01*
X166062844Y-95635000D01*
X165250000Y-95635000D01*
X165250000Y-96555439D01*
X165196853Y-96524755D01*
X165067143Y-96490000D01*
X164932857Y-96490000D01*
X164803147Y-96524755D01*
X164750000Y-96555439D01*
X164750000Y-95635000D01*
X164107800Y-95635000D01*
X164040761Y-95615315D01*
X163995006Y-95562511D01*
X163983800Y-95511000D01*
X163983800Y-95437736D01*
X164003485Y-95370697D01*
X164020119Y-95350055D01*
X165604956Y-93765218D01*
X167203828Y-92166346D01*
X167319524Y-92007105D01*
X167408884Y-91831726D01*
X167469709Y-91644526D01*
X167484369Y-91551966D01*
X167487441Y-91532570D01*
X167500500Y-91450122D01*
X167500500Y-90437230D01*
X167520185Y-90370191D01*
X167536819Y-90349549D01*
X167567712Y-90318656D01*
X167659814Y-90169334D01*
X167714999Y-90002797D01*
X167725500Y-89900009D01*
X167725499Y-88599992D01*
X167714999Y-88497203D01*
X167659814Y-88330666D01*
X167567712Y-88181344D01*
X167443656Y-88057288D01*
X167294334Y-87965186D01*
X167294333Y-87965185D01*
X167288878Y-87961821D01*
X167242154Y-87909873D01*
X167230931Y-87840910D01*
X167258775Y-87776828D01*
X167266272Y-87768623D01*
X167405104Y-87629792D01*
X167530051Y-87457816D01*
X167626557Y-87268412D01*
X167692246Y-87066243D01*
X167725500Y-86856287D01*
X167725500Y-86643713D01*
X167692246Y-86433757D01*
X167626557Y-86231588D01*
X167530051Y-86042184D01*
X167530049Y-86042181D01*
X167530048Y-86042179D01*
X167405109Y-85870213D01*
X167254790Y-85719894D01*
X167254785Y-85719890D01*
X167089781Y-85600008D01*
X167047115Y-85544678D01*
X167041136Y-85475065D01*
X167073741Y-85413270D01*
X167089781Y-85399371D01*
X167254466Y-85279721D01*
X167404723Y-85129464D01*
X167404727Y-85129459D01*
X167529620Y-84957557D01*
X167626095Y-84768217D01*
X167691757Y-84566129D01*
X167691757Y-84566126D01*
X167702231Y-84500000D01*
X166654146Y-84500000D01*
X166692630Y-84433343D01*
X166725000Y-84312535D01*
X166725000Y-84187465D01*
X166692630Y-84066657D01*
X166654146Y-84000000D01*
X167702231Y-84000000D01*
X167691757Y-83933873D01*
X167691757Y-83933870D01*
X167626095Y-83731782D01*
X167529620Y-83542442D01*
X167404727Y-83370540D01*
X167404723Y-83370535D01*
X167254464Y-83220276D01*
X167254459Y-83220272D01*
X167082557Y-83095379D01*
X166893217Y-82998904D01*
X166691128Y-82933242D01*
X166500000Y-82902969D01*
X166500000Y-83845854D01*
X166433343Y-83807370D01*
X166312535Y-83775000D01*
X166187465Y-83775000D01*
X166066657Y-83807370D01*
X166000000Y-83845854D01*
X166000000Y-82902969D01*
X165808872Y-82933242D01*
X165808869Y-82933242D01*
X165606782Y-82998904D01*
X165417442Y-83095379D01*
X165245540Y-83220272D01*
X165245535Y-83220276D01*
X165095276Y-83370535D01*
X165095272Y-83370540D01*
X164970379Y-83542442D01*
X164873904Y-83731782D01*
X164808242Y-83933869D01*
X164808242Y-83933872D01*
X164779980Y-84112308D01*
X164750051Y-84175443D01*
X164690739Y-84212374D01*
X164620876Y-84211376D01*
X164569826Y-84180591D01*
X162967590Y-82578355D01*
X162967588Y-82578352D01*
X162848717Y-82459481D01*
X162848716Y-82459480D01*
X162761904Y-82409360D01*
X162761904Y-82409359D01*
X162761900Y-82409358D01*
X162711785Y-82380423D01*
X162559057Y-82339499D01*
X162400943Y-82339499D01*
X162393347Y-82339499D01*
X162393331Y-82339500D01*
X161979602Y-82339500D01*
X161912563Y-82319815D01*
X161869117Y-82271795D01*
X161862284Y-82258385D01*
X161741971Y-82092786D01*
X161597213Y-81948028D01*
X161431613Y-81827715D01*
X161431612Y-81827714D01*
X161431610Y-81827713D01*
X161374653Y-81798691D01*
X161249223Y-81734781D01*
X161054534Y-81671522D01*
X160879995Y-81643878D01*
X160852352Y-81639500D01*
X160647648Y-81639500D01*
X160623329Y-81643351D01*
X160445465Y-81671522D01*
X160250776Y-81734781D01*
X160068386Y-81827715D01*
X159902786Y-81948028D01*
X159758028Y-82092786D01*
X159637715Y-82258386D01*
X159544781Y-82440776D01*
X159481522Y-82635465D01*
X159449500Y-82837648D01*
X159449500Y-83042351D01*
X159481522Y-83244534D01*
X159544781Y-83439223D01*
X159637715Y-83621613D01*
X159758028Y-83787213D01*
X159902786Y-83931971D01*
X160057749Y-84044556D01*
X160068390Y-84052287D01*
X160184607Y-84111503D01*
X160250776Y-84145218D01*
X160250778Y-84145218D01*
X160250781Y-84145220D01*
X160355137Y-84179127D01*
X160445465Y-84208477D01*
X160470070Y-84212374D01*
X160647648Y-84240500D01*
X160647649Y-84240500D01*
X160852351Y-84240500D01*
X160852352Y-84240500D01*
X161054534Y-84208477D01*
X161249219Y-84145220D01*
X161431610Y-84052287D01*
X161560914Y-83958343D01*
X161597213Y-83931971D01*
X161597215Y-83931968D01*
X161597219Y-83931966D01*
X161741966Y-83787219D01*
X161741968Y-83787215D01*
X161741971Y-83787213D01*
X161862284Y-83621614D01*
X161862285Y-83621613D01*
X161862287Y-83621610D01*
X161869117Y-83608204D01*
X161917091Y-83557409D01*
X161979602Y-83540500D01*
X162179903Y-83540500D01*
X162246942Y-83560185D01*
X162267584Y-83576819D01*
X164831706Y-86140941D01*
X164865191Y-86202264D01*
X164861956Y-86266940D01*
X164807753Y-86433759D01*
X164774500Y-86643713D01*
X164774500Y-86856286D01*
X164790342Y-86956312D01*
X164807754Y-87066243D01*
X164831353Y-87138874D01*
X164873444Y-87268414D01*
X164969951Y-87457820D01*
X165094890Y-87629786D01*
X165233705Y-87768601D01*
X165267190Y-87829924D01*
X165262206Y-87899616D01*
X165220334Y-87955549D01*
X165211121Y-87961821D01*
X165056342Y-88057289D01*
X164932289Y-88181342D01*
X164840187Y-88330663D01*
X164840186Y-88330666D01*
X164785001Y-88497203D01*
X164785001Y-88497204D01*
X164785000Y-88497204D01*
X164774500Y-88599983D01*
X164774500Y-89900001D01*
X164774501Y-89900018D01*
X164785000Y-90002796D01*
X164785001Y-90002799D01*
X164840185Y-90169331D01*
X164840187Y-90169336D01*
X164932289Y-90318657D01*
X164963181Y-90349549D01*
X164996666Y-90410872D01*
X164999500Y-90437230D01*
X164999500Y-90782364D01*
X164979815Y-90849403D01*
X164963181Y-90870045D01*
X161779474Y-94053751D01*
X161779474Y-94053752D01*
X161779472Y-94053754D01*
X161729785Y-94122141D01*
X161663776Y-94212994D01*
X161573969Y-94389251D01*
X161572908Y-94393012D01*
X161513591Y-94575569D01*
X161513591Y-94575572D01*
X161482800Y-94769977D01*
X161482800Y-99638422D01*
X161513590Y-99832826D01*
X161574417Y-100020029D01*
X161663776Y-100195405D01*
X161779472Y-100354646D01*
X161918654Y-100493828D01*
X162077895Y-100609524D01*
X162107623Y-100624671D01*
X162253270Y-100698882D01*
X162253272Y-100698882D01*
X162253275Y-100698884D01*
X162286508Y-100709682D01*
X162440473Y-100759709D01*
X162634878Y-100790500D01*
X162634883Y-100790500D01*
X163920085Y-100790500D01*
X163987124Y-100810185D01*
X164032879Y-100862989D01*
X164042823Y-100932147D01*
X164013798Y-100995703D01*
X163992971Y-101014818D01*
X163960435Y-101038456D01*
X163808457Y-101190434D01*
X163808457Y-101190435D01*
X163808455Y-101190437D01*
X163754198Y-101265114D01*
X163682120Y-101364321D01*
X163584541Y-101555829D01*
X163584540Y-101555832D01*
X163518124Y-101760240D01*
X163518124Y-101760243D01*
X163503514Y-101852486D01*
X163484500Y-101972533D01*
X163484500Y-102187467D01*
X163501765Y-102296473D01*
X163518124Y-102399756D01*
X163518124Y-102399759D01*
X163584540Y-102604167D01*
X163584541Y-102604170D01*
X163646083Y-102724952D01*
X163682120Y-102795678D01*
X163808455Y-102969563D01*
X163960437Y-103121545D01*
X164100075Y-103222998D01*
X164136802Y-103249682D01*
X164179467Y-103305012D01*
X164185446Y-103374626D01*
X164152840Y-103436421D01*
X164136802Y-103450318D01*
X164102493Y-103475245D01*
X163960437Y-103578455D01*
X163960435Y-103578457D01*
X163960434Y-103578457D01*
X163808457Y-103730434D01*
X163808457Y-103730435D01*
X163808455Y-103730437D01*
X163789302Y-103756799D01*
X163682120Y-103904321D01*
X163584541Y-104095829D01*
X163584540Y-104095832D01*
X163518124Y-104300240D01*
X163518124Y-104300243D01*
X163508899Y-104358489D01*
X163487225Y-104495332D01*
X163484500Y-104512534D01*
X163484500Y-104727465D01*
X163518124Y-104939756D01*
X163518124Y-104939759D01*
X163584540Y-105144167D01*
X163584541Y-105144170D01*
X163682120Y-105335678D01*
X163788295Y-105481816D01*
X163811775Y-105547620D01*
X163795950Y-105615674D01*
X163745844Y-105664369D01*
X163687977Y-105678700D01*
X153757182Y-105678700D01*
X153690143Y-105659015D01*
X153644388Y-105606211D01*
X153634444Y-105537053D01*
X153642621Y-105507248D01*
X153689735Y-105393501D01*
X153689737Y-105393497D01*
X153720500Y-105238842D01*
X153720500Y-105081158D01*
X153720500Y-105081155D01*
X153720499Y-105081153D01*
X153689737Y-104926503D01*
X153689735Y-104926498D01*
X153629397Y-104780827D01*
X153629390Y-104780814D01*
X153541789Y-104649711D01*
X153541786Y-104649707D01*
X153474339Y-104582260D01*
X153440854Y-104520937D01*
X153445838Y-104451245D01*
X153487710Y-104395312D01*
X153505725Y-104384094D01*
X153529094Y-104372187D01*
X153635678Y-104317880D01*
X153809563Y-104191545D01*
X153961545Y-104039563D01*
X154087880Y-103865678D01*
X154087879Y-103865678D01*
X154089682Y-103863198D01*
X154145012Y-103820532D01*
X154214625Y-103814553D01*
X154276420Y-103847159D01*
X154290318Y-103863198D01*
X154406236Y-104022745D01*
X154418455Y-104039563D01*
X154570437Y-104191545D01*
X154744322Y-104317880D01*
X154824022Y-104358489D01*
X154935829Y-104415458D01*
X154935832Y-104415459D01*
X155126494Y-104477408D01*
X155140245Y-104481876D01*
X155352533Y-104515500D01*
X155352534Y-104515500D01*
X155567466Y-104515500D01*
X155567467Y-104515500D01*
X155779755Y-104481876D01*
X155779758Y-104481875D01*
X155779759Y-104481875D01*
X155984167Y-104415459D01*
X155984170Y-104415458D01*
X156175678Y-104317880D01*
X156349563Y-104191545D01*
X156444480Y-104096627D01*
X156505799Y-104063145D01*
X156575491Y-104068129D01*
X156631425Y-104110000D01*
X156648340Y-104140978D01*
X156691645Y-104257086D01*
X156691649Y-104257093D01*
X156777809Y-104372187D01*
X156777812Y-104372190D01*
X156892906Y-104458350D01*
X156892913Y-104458354D01*
X157027620Y-104508596D01*
X157027627Y-104508598D01*
X157087155Y-104514999D01*
X157087172Y-104515000D01*
X157750000Y-104515000D01*
X157750000Y-103444560D01*
X157803147Y-103475245D01*
X157932857Y-103510000D01*
X158067143Y-103510000D01*
X158196853Y-103475245D01*
X158250000Y-103444560D01*
X158250000Y-104515000D01*
X158912828Y-104515000D01*
X158912844Y-104514999D01*
X158972372Y-104508598D01*
X158972379Y-104508596D01*
X159107086Y-104458354D01*
X159107093Y-104458350D01*
X159222187Y-104372190D01*
X159222190Y-104372187D01*
X159308350Y-104257093D01*
X159308354Y-104257086D01*
X159358596Y-104122379D01*
X159358598Y-104122372D01*
X159364999Y-104062844D01*
X159365000Y-104062827D01*
X159365000Y-103250000D01*
X158444560Y-103250000D01*
X158475245Y-103196853D01*
X158510000Y-103067143D01*
X158510000Y-102932857D01*
X158475245Y-102803147D01*
X158444560Y-102750000D01*
X159365000Y-102750000D01*
X159365000Y-101937172D01*
X159364999Y-101937155D01*
X159358598Y-101877627D01*
X159358596Y-101877620D01*
X159308354Y-101742913D01*
X159308350Y-101742906D01*
X159222190Y-101627812D01*
X159222187Y-101627809D01*
X159107093Y-101541649D01*
X159107086Y-101541645D01*
X158972379Y-101491403D01*
X158972372Y-101491401D01*
X158912844Y-101485000D01*
X158250000Y-101485000D01*
X158250000Y-102555439D01*
X158196853Y-102524755D01*
X158067143Y-102490000D01*
X157932857Y-102490000D01*
X157803147Y-102524755D01*
X157750000Y-102555439D01*
X157750000Y-101485000D01*
X157087155Y-101485000D01*
X157027627Y-101491401D01*
X157027620Y-101491403D01*
X156884601Y-101544746D01*
X156884040Y-101543243D01*
X156825645Y-101555942D01*
X156760183Y-101531521D01*
X156718315Y-101475585D01*
X156710500Y-101432259D01*
X156710500Y-90457648D01*
X159449500Y-90457648D01*
X159449500Y-90662351D01*
X159481522Y-90864534D01*
X159544781Y-91059223D01*
X159637715Y-91241613D01*
X159758028Y-91407213D01*
X159902786Y-91551971D01*
X160022121Y-91638671D01*
X160068390Y-91672287D01*
X160184607Y-91731503D01*
X160250776Y-91765218D01*
X160250778Y-91765218D01*
X160250781Y-91765220D01*
X160355137Y-91799127D01*
X160445465Y-91828477D01*
X160466004Y-91831730D01*
X160647648Y-91860500D01*
X160647649Y-91860500D01*
X160852351Y-91860500D01*
X160852352Y-91860500D01*
X161054534Y-91828477D01*
X161249219Y-91765220D01*
X161431610Y-91672287D01*
X161570911Y-91571080D01*
X161597213Y-91551971D01*
X161597219Y-91551966D01*
X161616615Y-91532570D01*
X161741966Y-91407219D01*
X161741968Y-91407215D01*
X161741971Y-91407213D01*
X161810575Y-91312786D01*
X161862287Y-91241610D01*
X161955220Y-91059219D01*
X162018477Y-90864534D01*
X162050500Y-90662352D01*
X162050500Y-90457648D01*
X162028486Y-90318657D01*
X162018477Y-90255465D01*
X161955218Y-90060776D01*
X161921503Y-89994607D01*
X161862287Y-89878390D01*
X161854556Y-89867749D01*
X161741971Y-89712786D01*
X161597213Y-89568028D01*
X161431613Y-89447715D01*
X161431612Y-89447714D01*
X161431610Y-89447713D01*
X161374653Y-89418691D01*
X161249223Y-89354781D01*
X161054534Y-89291522D01*
X160879995Y-89263878D01*
X160852352Y-89259500D01*
X160647648Y-89259500D01*
X160623329Y-89263351D01*
X160445465Y-89291522D01*
X160250776Y-89354781D01*
X160068386Y-89447715D01*
X159902786Y-89568028D01*
X159758028Y-89712786D01*
X159637715Y-89878386D01*
X159544781Y-90060776D01*
X159481522Y-90255465D01*
X159449500Y-90457648D01*
X156710500Y-90457648D01*
X156710500Y-87333277D01*
X156692586Y-87220183D01*
X156679709Y-87138874D01*
X156679708Y-87138870D01*
X156679708Y-87138869D01*
X156620391Y-86956312D01*
X156619329Y-86952547D01*
X156529523Y-86776294D01*
X156413828Y-86617054D01*
X150036819Y-80240045D01*
X150003334Y-80178722D01*
X150000500Y-80152364D01*
X150000500Y-79811438D01*
X150020185Y-79744399D01*
X150025234Y-79737126D01*
X150043796Y-79712331D01*
X150094091Y-79577483D01*
X150100500Y-79517873D01*
X150100499Y-77722128D01*
X150094091Y-77662517D01*
X150052765Y-77551717D01*
X150043797Y-77527671D01*
X150043793Y-77527664D01*
X149957547Y-77412455D01*
X149957544Y-77412452D01*
X149842335Y-77326206D01*
X149842328Y-77326202D01*
X149707482Y-77275908D01*
X149707483Y-77275908D01*
X149647883Y-77269501D01*
X149647881Y-77269500D01*
X149647873Y-77269500D01*
X149647865Y-77269500D01*
X149637309Y-77269500D01*
X149570270Y-77249815D01*
X149549628Y-77233181D01*
X148879408Y-76562962D01*
X148942993Y-76545925D01*
X149057007Y-76480099D01*
X149150099Y-76387007D01*
X149215925Y-76272993D01*
X149232962Y-76209409D01*
X149865270Y-76841717D01*
X149865270Y-76841716D01*
X149904622Y-76787554D01*
X150001095Y-76598217D01*
X150066757Y-76396130D01*
X150066757Y-76396127D01*
X150100000Y-76186246D01*
X150100000Y-75973753D01*
X150066757Y-75763872D01*
X150066757Y-75763869D01*
X150001095Y-75561782D01*
X149904624Y-75372449D01*
X149865270Y-75318282D01*
X149865269Y-75318282D01*
X149232962Y-75950590D01*
X149215925Y-75887007D01*
X149150099Y-75772993D01*
X149057007Y-75679901D01*
X148942993Y-75614075D01*
X148879409Y-75597037D01*
X149511716Y-74964728D01*
X149457547Y-74925373D01*
X149457547Y-74925372D01*
X149448500Y-74920763D01*
X149397706Y-74872788D01*
X149380912Y-74804966D01*
X149403451Y-74738832D01*
X149448508Y-74699793D01*
X149457816Y-74695051D01*
X149537007Y-74637515D01*
X149629786Y-74570109D01*
X149629788Y-74570106D01*
X149629792Y-74570104D01*
X149780104Y-74419792D01*
X149780106Y-74419788D01*
X149780109Y-74419786D01*
X149905048Y-74247820D01*
X149905047Y-74247820D01*
X149905051Y-74247816D01*
X150001557Y-74058412D01*
X150067246Y-73856243D01*
X150100500Y-73646287D01*
X150100500Y-73433713D01*
X150067246Y-73223757D01*
X150001557Y-73021588D01*
X149905051Y-72832184D01*
X149905049Y-72832181D01*
X149905048Y-72832179D01*
X149780109Y-72660213D01*
X149629786Y-72509890D01*
X149457817Y-72384949D01*
X149448504Y-72380204D01*
X149397707Y-72332230D01*
X149380912Y-72264409D01*
X149403449Y-72198274D01*
X149448507Y-72159232D01*
X149457555Y-72154622D01*
X149511716Y-72115270D01*
X149511717Y-72115270D01*
X148879408Y-71482962D01*
X148942993Y-71465925D01*
X149057007Y-71400099D01*
X149150099Y-71307007D01*
X149215925Y-71192993D01*
X149232962Y-71129409D01*
X149865270Y-71761717D01*
X149865270Y-71761716D01*
X149904622Y-71707554D01*
X150001095Y-71518217D01*
X150066757Y-71316130D01*
X150066757Y-71316127D01*
X150100000Y-71106246D01*
X150100000Y-70893753D01*
X150066757Y-70683872D01*
X150066757Y-70683869D01*
X150001095Y-70481782D01*
X149904624Y-70292449D01*
X149865270Y-70238282D01*
X149865269Y-70238282D01*
X149232962Y-70870590D01*
X149215925Y-70807007D01*
X149150099Y-70692993D01*
X149057007Y-70599901D01*
X148942993Y-70534075D01*
X148879409Y-70517037D01*
X149294310Y-70102135D01*
X154399500Y-70102135D01*
X154399500Y-71897870D01*
X154399501Y-71897876D01*
X154405908Y-71957483D01*
X154456202Y-72092328D01*
X154456206Y-72092335D01*
X154542452Y-72207544D01*
X154542455Y-72207547D01*
X154657664Y-72293793D01*
X154657671Y-72293797D01*
X154702618Y-72310561D01*
X154792517Y-72344091D01*
X154852127Y-72350500D01*
X154862685Y-72350499D01*
X154929723Y-72370179D01*
X154950372Y-72386818D01*
X155620591Y-73057037D01*
X155557007Y-73074075D01*
X155442993Y-73139901D01*
X155349901Y-73232993D01*
X155284075Y-73347007D01*
X155267037Y-73410591D01*
X154634728Y-72778282D01*
X154634727Y-72778282D01*
X154595380Y-72832439D01*
X154498904Y-73021782D01*
X154433242Y-73223869D01*
X154433242Y-73223872D01*
X154400000Y-73433753D01*
X154400000Y-73646246D01*
X154433242Y-73856127D01*
X154433242Y-73856130D01*
X154498904Y-74058217D01*
X154595375Y-74247550D01*
X154634728Y-74301716D01*
X155267036Y-73669407D01*
X155284075Y-73732993D01*
X155349901Y-73847007D01*
X155442993Y-73940099D01*
X155557007Y-74005925D01*
X155620590Y-74022962D01*
X154988282Y-74655269D01*
X154988282Y-74655270D01*
X155042452Y-74694626D01*
X155042451Y-74694626D01*
X155051495Y-74699234D01*
X155102292Y-74747208D01*
X155119087Y-74815029D01*
X155096550Y-74881164D01*
X155051499Y-74920202D01*
X155042182Y-74924949D01*
X154870213Y-75049890D01*
X154719890Y-75200213D01*
X154594951Y-75372179D01*
X154498444Y-75561585D01*
X154432753Y-75763760D01*
X154431291Y-75772993D01*
X154399500Y-75973713D01*
X154399500Y-76186287D01*
X154406037Y-76227561D01*
X154432735Y-76396127D01*
X154432754Y-76396243D01*
X154497986Y-76597007D01*
X154498444Y-76598414D01*
X154594951Y-76787820D01*
X154719890Y-76959786D01*
X154870213Y-77110109D01*
X155042182Y-77235050D01*
X155050946Y-77239516D01*
X155101742Y-77287491D01*
X155118536Y-77355312D01*
X155095998Y-77421447D01*
X155050946Y-77460484D01*
X155042182Y-77464949D01*
X154870213Y-77589890D01*
X154719890Y-77740213D01*
X154594951Y-77912179D01*
X154498444Y-78101585D01*
X154498443Y-78101587D01*
X154498443Y-78101588D01*
X154485962Y-78140000D01*
X154432753Y-78303760D01*
X154399500Y-78513713D01*
X154399500Y-78726286D01*
X154432753Y-78936239D01*
X154498444Y-79138414D01*
X154594951Y-79327820D01*
X154719890Y-79499786D01*
X154870213Y-79650109D01*
X155042179Y-79775048D01*
X155042181Y-79775049D01*
X155042184Y-79775051D01*
X155231588Y-79871557D01*
X155433757Y-79937246D01*
X155643713Y-79970500D01*
X155643714Y-79970500D01*
X155856286Y-79970500D01*
X155856287Y-79970500D01*
X156066243Y-79937246D01*
X156268412Y-79871557D01*
X156457816Y-79775051D01*
X156510016Y-79737126D01*
X156629786Y-79650109D01*
X156629788Y-79650106D01*
X156629792Y-79650104D01*
X156780104Y-79499792D01*
X156780106Y-79499788D01*
X156780109Y-79499786D01*
X156905048Y-79327820D01*
X156905047Y-79327820D01*
X156905051Y-79327816D01*
X157001557Y-79138412D01*
X157067246Y-78936243D01*
X157100500Y-78726287D01*
X157100500Y-78513713D01*
X157067246Y-78303757D01*
X157001557Y-78101588D01*
X156905051Y-77912184D01*
X156905050Y-77912182D01*
X156780109Y-77740213D01*
X156629786Y-77589890D01*
X156457820Y-77464951D01*
X156457115Y-77464591D01*
X156449054Y-77460485D01*
X156398259Y-77412512D01*
X156381463Y-77344692D01*
X156403999Y-77278556D01*
X156449054Y-77239515D01*
X156457816Y-77235051D01*
X156583752Y-77143554D01*
X156629786Y-77110109D01*
X156629788Y-77110106D01*
X156629792Y-77110104D01*
X156780104Y-76959792D01*
X156780106Y-76959788D01*
X156780109Y-76959786D01*
X156865890Y-76841717D01*
X156905051Y-76787816D01*
X157001557Y-76598412D01*
X157067246Y-76396243D01*
X157100500Y-76186287D01*
X157100500Y-75973713D01*
X157067246Y-75763757D01*
X157001557Y-75561588D01*
X156905051Y-75372184D01*
X156905049Y-75372181D01*
X156905048Y-75372179D01*
X156780109Y-75200213D01*
X156629786Y-75049890D01*
X156457817Y-74924949D01*
X156448504Y-74920204D01*
X156397707Y-74872230D01*
X156380912Y-74804409D01*
X156403449Y-74738274D01*
X156448507Y-74699232D01*
X156457555Y-74694622D01*
X156511716Y-74655270D01*
X156511717Y-74655270D01*
X155879408Y-74022962D01*
X155942993Y-74005925D01*
X156057007Y-73940099D01*
X156150099Y-73847007D01*
X156215925Y-73732993D01*
X156232962Y-73669409D01*
X156865270Y-74301717D01*
X156865270Y-74301716D01*
X156904622Y-74247554D01*
X157001095Y-74058217D01*
X157066757Y-73856130D01*
X157066757Y-73856127D01*
X157100000Y-73646246D01*
X157100000Y-73433753D01*
X157066757Y-73223872D01*
X157066757Y-73223869D01*
X157001095Y-73021782D01*
X156904624Y-72832449D01*
X156865270Y-72778282D01*
X156865269Y-72778282D01*
X156232962Y-73410590D01*
X156215925Y-73347007D01*
X156150099Y-73232993D01*
X156057007Y-73139901D01*
X155942993Y-73074075D01*
X155879409Y-73057037D01*
X156549627Y-72386818D01*
X156610950Y-72353333D01*
X156637307Y-72350499D01*
X156647872Y-72350499D01*
X156707483Y-72344091D01*
X156842331Y-72293796D01*
X156957546Y-72207546D01*
X157043796Y-72092331D01*
X157094091Y-71957483D01*
X157100500Y-71897873D01*
X157100499Y-70812135D01*
X164149500Y-70812135D01*
X164149500Y-72607870D01*
X164149501Y-72607876D01*
X164155908Y-72667483D01*
X164206202Y-72802328D01*
X164206206Y-72802335D01*
X164292452Y-72917544D01*
X164292455Y-72917547D01*
X164407664Y-73003793D01*
X164407671Y-73003797D01*
X164539082Y-73052810D01*
X164595016Y-73094681D01*
X164619433Y-73160145D01*
X164604582Y-73228418D01*
X164583431Y-73256673D01*
X164469889Y-73370215D01*
X164344951Y-73542179D01*
X164248444Y-73731585D01*
X164248443Y-73731587D01*
X164248443Y-73731588D01*
X164215598Y-73832672D01*
X164182753Y-73933760D01*
X164163041Y-74058217D01*
X164149500Y-74143713D01*
X164149500Y-74356287D01*
X164182754Y-74566243D01*
X164241553Y-74747208D01*
X164248444Y-74768414D01*
X164344951Y-74957820D01*
X164469890Y-75129786D01*
X164620213Y-75280109D01*
X164792179Y-75405048D01*
X164792181Y-75405049D01*
X164792184Y-75405051D01*
X164801493Y-75409794D01*
X164852290Y-75457766D01*
X164869087Y-75525587D01*
X164846552Y-75591722D01*
X164801505Y-75630760D01*
X164792446Y-75635376D01*
X164792440Y-75635380D01*
X164738282Y-75674727D01*
X164738282Y-75674728D01*
X165370591Y-76307037D01*
X165307007Y-76324075D01*
X165192993Y-76389901D01*
X165099901Y-76482993D01*
X165034075Y-76597007D01*
X165017037Y-76660591D01*
X164384728Y-76028282D01*
X164384727Y-76028282D01*
X164345380Y-76082439D01*
X164248904Y-76271782D01*
X164183242Y-76473869D01*
X164183242Y-76473872D01*
X164150000Y-76683753D01*
X164150000Y-76896246D01*
X164183242Y-77106127D01*
X164183242Y-77106130D01*
X164248904Y-77308217D01*
X164345375Y-77497550D01*
X164384728Y-77551716D01*
X165017036Y-76919407D01*
X165034075Y-76982993D01*
X165099901Y-77097007D01*
X165192993Y-77190099D01*
X165307007Y-77255925D01*
X165370590Y-77272962D01*
X164738282Y-77905269D01*
X164738282Y-77905270D01*
X164792449Y-77944624D01*
X164981782Y-78041095D01*
X165183870Y-78106757D01*
X165393754Y-78140000D01*
X165606246Y-78140000D01*
X165816127Y-78106757D01*
X165816130Y-78106757D01*
X166018217Y-78041095D01*
X166207554Y-77944622D01*
X166261716Y-77905270D01*
X166261717Y-77905270D01*
X165629408Y-77272962D01*
X165692993Y-77255925D01*
X165807007Y-77190099D01*
X165900099Y-77097007D01*
X165965925Y-76982993D01*
X165982962Y-76919408D01*
X166615270Y-77551717D01*
X166615270Y-77551716D01*
X166654622Y-77497554D01*
X166751095Y-77308217D01*
X166816757Y-77106130D01*
X166816757Y-77106127D01*
X166850000Y-76896246D01*
X166850000Y-76683753D01*
X166816757Y-76473872D01*
X166816757Y-76473869D01*
X166751095Y-76271782D01*
X166654624Y-76082449D01*
X166615270Y-76028282D01*
X166615269Y-76028282D01*
X165982962Y-76660590D01*
X165965925Y-76597007D01*
X165900099Y-76482993D01*
X165807007Y-76389901D01*
X165692993Y-76324075D01*
X165629409Y-76307037D01*
X166261716Y-75674728D01*
X166207547Y-75635373D01*
X166207547Y-75635372D01*
X166198500Y-75630763D01*
X166147706Y-75582788D01*
X166130912Y-75514966D01*
X166153451Y-75448832D01*
X166198508Y-75409793D01*
X166207816Y-75405051D01*
X166287007Y-75347515D01*
X166379786Y-75280109D01*
X166379788Y-75280106D01*
X166379792Y-75280104D01*
X166530104Y-75129792D01*
X166530106Y-75129788D01*
X166530109Y-75129786D01*
X166655048Y-74957820D01*
X166655047Y-74957820D01*
X166655051Y-74957816D01*
X166751557Y-74768412D01*
X166817246Y-74566243D01*
X166850500Y-74356287D01*
X166850500Y-74143713D01*
X166817246Y-73933757D01*
X166751557Y-73731588D01*
X166655051Y-73542184D01*
X166655049Y-73542181D01*
X166655048Y-73542179D01*
X166530109Y-73370213D01*
X166416569Y-73256673D01*
X166383084Y-73195350D01*
X166388068Y-73125658D01*
X166429940Y-73069725D01*
X166460915Y-73052810D01*
X166592331Y-73003796D01*
X166707546Y-72917546D01*
X166793796Y-72802331D01*
X166844091Y-72667483D01*
X166850500Y-72607873D01*
X166850499Y-70812128D01*
X166844091Y-70752517D01*
X166824059Y-70698809D01*
X166793797Y-70617671D01*
X166793793Y-70617664D01*
X166707547Y-70502455D01*
X166707544Y-70502452D01*
X166592335Y-70416206D01*
X166592328Y-70416202D01*
X166457482Y-70365908D01*
X166457483Y-70365908D01*
X166397883Y-70359501D01*
X166397881Y-70359500D01*
X166397873Y-70359500D01*
X166397864Y-70359500D01*
X164602129Y-70359500D01*
X164602123Y-70359501D01*
X164542516Y-70365908D01*
X164407671Y-70416202D01*
X164407664Y-70416206D01*
X164292455Y-70502452D01*
X164292452Y-70502455D01*
X164206206Y-70617664D01*
X164206202Y-70617671D01*
X164155908Y-70752517D01*
X164150050Y-70807007D01*
X164149501Y-70812123D01*
X164149500Y-70812135D01*
X157100499Y-70812135D01*
X157100499Y-70102128D01*
X157094091Y-70042517D01*
X157079924Y-70004534D01*
X157043797Y-69907671D01*
X157043793Y-69907664D01*
X156957547Y-69792455D01*
X156957544Y-69792452D01*
X156842335Y-69706206D01*
X156842328Y-69706202D01*
X156707482Y-69655908D01*
X156707483Y-69655908D01*
X156647883Y-69649501D01*
X156647881Y-69649500D01*
X156647873Y-69649500D01*
X156647864Y-69649500D01*
X154852129Y-69649500D01*
X154852123Y-69649501D01*
X154792516Y-69655908D01*
X154657671Y-69706202D01*
X154657664Y-69706206D01*
X154542455Y-69792452D01*
X154542452Y-69792455D01*
X154456206Y-69907664D01*
X154456202Y-69907671D01*
X154405908Y-70042517D01*
X154399501Y-70102116D01*
X154399501Y-70102123D01*
X154399500Y-70102135D01*
X149294310Y-70102135D01*
X149385320Y-70011125D01*
X149511716Y-69884728D01*
X149457550Y-69845375D01*
X149268217Y-69748904D01*
X149066129Y-69683242D01*
X148856246Y-69650000D01*
X148643754Y-69650000D01*
X148433872Y-69683242D01*
X148433869Y-69683242D01*
X148231782Y-69748904D01*
X148042439Y-69845380D01*
X147988282Y-69884727D01*
X147988282Y-69884728D01*
X148620591Y-70517037D01*
X148557007Y-70534075D01*
X148442993Y-70599901D01*
X148349901Y-70692993D01*
X148284075Y-70807007D01*
X148267037Y-70870591D01*
X147634728Y-70238282D01*
X147634727Y-70238282D01*
X147595380Y-70292439D01*
X147498904Y-70481782D01*
X147433242Y-70683869D01*
X147433242Y-70683872D01*
X147400000Y-70893753D01*
X147400000Y-71106246D01*
X147433242Y-71316127D01*
X147433242Y-71316130D01*
X147498904Y-71518217D01*
X147595375Y-71707550D01*
X147634728Y-71761716D01*
X148267037Y-71129408D01*
X148284075Y-71192993D01*
X148349901Y-71307007D01*
X148442993Y-71400099D01*
X148557007Y-71465925D01*
X148620590Y-71482962D01*
X147988282Y-72115269D01*
X147988282Y-72115270D01*
X148042452Y-72154626D01*
X148042451Y-72154626D01*
X148051495Y-72159234D01*
X148102292Y-72207208D01*
X148119087Y-72275029D01*
X148096550Y-72341164D01*
X148051499Y-72380202D01*
X148042182Y-72384949D01*
X147870213Y-72509890D01*
X147719890Y-72660213D01*
X147594951Y-72832179D01*
X147498444Y-73021585D01*
X147432753Y-73223760D01*
X147399500Y-73433713D01*
X147399500Y-73646286D01*
X147432753Y-73856239D01*
X147498444Y-74058414D01*
X147594951Y-74247820D01*
X147719890Y-74419786D01*
X147870213Y-74570109D01*
X148042179Y-74695048D01*
X148042181Y-74695049D01*
X148042184Y-74695051D01*
X148051493Y-74699794D01*
X148102290Y-74747766D01*
X148119087Y-74815587D01*
X148096552Y-74881722D01*
X148051505Y-74920760D01*
X148042446Y-74925376D01*
X148042440Y-74925380D01*
X147988282Y-74964727D01*
X147988282Y-74964728D01*
X148620591Y-75597037D01*
X148557007Y-75614075D01*
X148442993Y-75679901D01*
X148349901Y-75772993D01*
X148284075Y-75887007D01*
X148267037Y-75950591D01*
X147634728Y-75318282D01*
X147634727Y-75318282D01*
X147595380Y-75372439D01*
X147498904Y-75561782D01*
X147433242Y-75763869D01*
X147433242Y-75763872D01*
X147400000Y-75973753D01*
X147400000Y-76186246D01*
X147433242Y-76396127D01*
X147433242Y-76396130D01*
X147498904Y-76598217D01*
X147595375Y-76787550D01*
X147634728Y-76841716D01*
X148267037Y-76209408D01*
X148284075Y-76272993D01*
X148349901Y-76387007D01*
X148442993Y-76480099D01*
X148557007Y-76545925D01*
X148620590Y-76562962D01*
X147950370Y-77233181D01*
X147889047Y-77266666D01*
X147862698Y-77269500D01*
X147852134Y-77269500D01*
X147852123Y-77269501D01*
X147792516Y-77275908D01*
X147657671Y-77326202D01*
X147657664Y-77326206D01*
X147542455Y-77412452D01*
X147542452Y-77412455D01*
X147456206Y-77527664D01*
X147456202Y-77527671D01*
X147405908Y-77662517D01*
X147399501Y-77722116D01*
X147399501Y-77722123D01*
X147399500Y-77722135D01*
X147399500Y-79517870D01*
X147399501Y-79517876D01*
X147405908Y-79577483D01*
X147456203Y-79712329D01*
X147474766Y-79737126D01*
X147499184Y-79802590D01*
X147499500Y-79811438D01*
X147499500Y-80820122D01*
X147530290Y-81014526D01*
X147591117Y-81201730D01*
X147680476Y-81377105D01*
X147796172Y-81536346D01*
X147796174Y-81536348D01*
X154173181Y-87913355D01*
X154206666Y-87974678D01*
X154209500Y-88001036D01*
X154209500Y-101920085D01*
X154189815Y-101987124D01*
X154137011Y-102032879D01*
X154067853Y-102042823D01*
X154004297Y-102013798D01*
X153985182Y-101992971D01*
X153961547Y-101960440D01*
X153961545Y-101960437D01*
X153809563Y-101808455D01*
X153635678Y-101682120D01*
X153444170Y-101584541D01*
X153444167Y-101584540D01*
X153239757Y-101518124D01*
X153089176Y-101494274D01*
X153027467Y-101484500D01*
X152812533Y-101484500D01*
X152750824Y-101494274D01*
X152600243Y-101518124D01*
X152600240Y-101518124D01*
X152395832Y-101584540D01*
X152395829Y-101584541D01*
X152204321Y-101682120D01*
X152137884Y-101730390D01*
X152030437Y-101808455D01*
X152030435Y-101808457D01*
X152030434Y-101808457D01*
X151878457Y-101960434D01*
X151878457Y-101960435D01*
X151878455Y-101960437D01*
X151839686Y-102013798D01*
X151750318Y-102136802D01*
X151694988Y-102179467D01*
X151625374Y-102185446D01*
X151563579Y-102152840D01*
X151549682Y-102136802D01*
X151536836Y-102119121D01*
X151421545Y-101960437D01*
X151269563Y-101808455D01*
X151095678Y-101682120D01*
X150904170Y-101584541D01*
X150904167Y-101584540D01*
X150699757Y-101518124D01*
X150549176Y-101494274D01*
X150487467Y-101484500D01*
X150272533Y-101484500D01*
X150210824Y-101494274D01*
X150060243Y-101518124D01*
X150060240Y-101518124D01*
X149855832Y-101584540D01*
X149855829Y-101584541D01*
X149664321Y-101682120D01*
X149597884Y-101730390D01*
X149490437Y-101808455D01*
X149490435Y-101808457D01*
X149490434Y-101808457D01*
X149338457Y-101960434D01*
X149338452Y-101960440D01*
X149291035Y-102025705D01*
X149235705Y-102068371D01*
X149166092Y-102074350D01*
X149104297Y-102041744D01*
X149103036Y-102040501D01*
X126358519Y-79295984D01*
X126325034Y-79234661D01*
X126322200Y-79208303D01*
X126322200Y-70935054D01*
X126341885Y-70868015D01*
X126394689Y-70822260D01*
X126463847Y-70812316D01*
X126502495Y-70824569D01*
X126660776Y-70905218D01*
X126660778Y-70905218D01*
X126660781Y-70905220D01*
X126735818Y-70929601D01*
X126855465Y-70968477D01*
X126956557Y-70984488D01*
X127057648Y-71000500D01*
X127057649Y-71000500D01*
X127262351Y-71000500D01*
X127262352Y-71000500D01*
X127464534Y-70968477D01*
X127659219Y-70905220D01*
X127841610Y-70812287D01*
X127934590Y-70744732D01*
X128007213Y-70691971D01*
X128007215Y-70691968D01*
X128007219Y-70691966D01*
X128151966Y-70547219D01*
X128151968Y-70547215D01*
X128151971Y-70547213D01*
X128272284Y-70381614D01*
X128272286Y-70381611D01*
X128272287Y-70381610D01*
X128319516Y-70288917D01*
X128367489Y-70238123D01*
X128435310Y-70221328D01*
X128501445Y-70243865D01*
X128540483Y-70288917D01*
X128563169Y-70333439D01*
X128587715Y-70381614D01*
X128708028Y-70547213D01*
X128852786Y-70691971D01*
X128985735Y-70788562D01*
X129018390Y-70812287D01*
X129099499Y-70853614D01*
X129200776Y-70905218D01*
X129200778Y-70905218D01*
X129200781Y-70905220D01*
X129275818Y-70929601D01*
X129395465Y-70968477D01*
X129496557Y-70984488D01*
X129597648Y-71000500D01*
X129597649Y-71000500D01*
X129802351Y-71000500D01*
X129802352Y-71000500D01*
X130004534Y-70968477D01*
X130199219Y-70905220D01*
X130381610Y-70812287D01*
X130474590Y-70744732D01*
X130547213Y-70691971D01*
X130547215Y-70691968D01*
X130547219Y-70691966D01*
X130691966Y-70547219D01*
X130691968Y-70547215D01*
X130691971Y-70547213D01*
X130812284Y-70381614D01*
X130812286Y-70381611D01*
X130812287Y-70381610D01*
X130859795Y-70288369D01*
X130907770Y-70237574D01*
X130975591Y-70220779D01*
X131041725Y-70243316D01*
X131080765Y-70288370D01*
X131128140Y-70381349D01*
X131248417Y-70546894D01*
X131248417Y-70546895D01*
X131393104Y-70691582D01*
X131558650Y-70811859D01*
X131740968Y-70904754D01*
X131935578Y-70967988D01*
X131990000Y-70976607D01*
X131990000Y-69875277D01*
X132066306Y-69919333D01*
X132180756Y-69950000D01*
X132299244Y-69950000D01*
X132413694Y-69919333D01*
X132490000Y-69875277D01*
X132490000Y-70976606D01*
X132544421Y-70967988D01*
X132739031Y-70904754D01*
X132921349Y-70811859D01*
X133086894Y-70691582D01*
X133086895Y-70691582D01*
X133231582Y-70546895D01*
X133231582Y-70546894D01*
X133351861Y-70381347D01*
X133399234Y-70288371D01*
X133447208Y-70237575D01*
X133515028Y-70220779D01*
X133581164Y-70243316D01*
X133620203Y-70288369D01*
X133667713Y-70381611D01*
X133788028Y-70547213D01*
X133932786Y-70691971D01*
X134065735Y-70788562D01*
X134098390Y-70812287D01*
X134179499Y-70853614D01*
X134280776Y-70905218D01*
X134280778Y-70905218D01*
X134280781Y-70905220D01*
X134355818Y-70929601D01*
X134475465Y-70968477D01*
X134576557Y-70984488D01*
X134677648Y-71000500D01*
X134677649Y-71000500D01*
X134882351Y-71000500D01*
X134882352Y-71000500D01*
X135084534Y-70968477D01*
X135279219Y-70905220D01*
X135461610Y-70812287D01*
X135475078Y-70802501D01*
X135494266Y-70788562D01*
X135494266Y-70788561D01*
X135627212Y-70691971D01*
X135627210Y-70691971D01*
X135627219Y-70691966D01*
X135771966Y-70547219D01*
X135771968Y-70547215D01*
X135771971Y-70547213D01*
X135824732Y-70474590D01*
X135892287Y-70381610D01*
X135985220Y-70199219D01*
X136048477Y-70004534D01*
X136050000Y-69994918D01*
X136063040Y-69912589D01*
X136080500Y-69802351D01*
X136080500Y-69197648D01*
X136048477Y-68995465D01*
X135985218Y-68800776D01*
X135945515Y-68722855D01*
X135892287Y-68618390D01*
X135862965Y-68578031D01*
X135771971Y-68452786D01*
X135627213Y-68308028D01*
X135461613Y-68187715D01*
X135461612Y-68187714D01*
X135461610Y-68187713D01*
X135377122Y-68144664D01*
X135279223Y-68094781D01*
X135084534Y-68031522D01*
X134909995Y-68003878D01*
X134882352Y-67999500D01*
X134677648Y-67999500D01*
X134653329Y-68003351D01*
X134475465Y-68031522D01*
X134280776Y-68094781D01*
X134098386Y-68187715D01*
X133932786Y-68308028D01*
X133788028Y-68452786D01*
X133667713Y-68618388D01*
X133620203Y-68711630D01*
X133572228Y-68762426D01*
X133504407Y-68779220D01*
X133438272Y-68756682D01*
X133399234Y-68711628D01*
X133351861Y-68618652D01*
X133231582Y-68453105D01*
X133231582Y-68453104D01*
X133086895Y-68308417D01*
X132921349Y-68188140D01*
X132739029Y-68095244D01*
X132544413Y-68032009D01*
X132490000Y-68023390D01*
X132490000Y-69124722D01*
X132413694Y-69080667D01*
X132299244Y-69050000D01*
X132180756Y-69050000D01*
X132066306Y-69080667D01*
X131990000Y-69124722D01*
X131990000Y-68023390D01*
X131935586Y-68032009D01*
X131740970Y-68095244D01*
X131558650Y-68188140D01*
X131393105Y-68308417D01*
X131393104Y-68308417D01*
X131248417Y-68453104D01*
X131248417Y-68453105D01*
X131128140Y-68618650D01*
X131080765Y-68711629D01*
X131032790Y-68762425D01*
X130964969Y-68779220D01*
X130898834Y-68756682D01*
X130859795Y-68711629D01*
X130812419Y-68618650D01*
X130812287Y-68618390D01*
X130782965Y-68578031D01*
X130691971Y-68452786D01*
X130547213Y-68308028D01*
X130381613Y-68187715D01*
X130381612Y-68187714D01*
X130381610Y-68187713D01*
X130297122Y-68144664D01*
X130199223Y-68094781D01*
X130004534Y-68031522D01*
X129829995Y-68003878D01*
X129802352Y-67999500D01*
X129597648Y-67999500D01*
X129573329Y-68003351D01*
X129395465Y-68031522D01*
X129200776Y-68094781D01*
X129018386Y-68187715D01*
X128852786Y-68308028D01*
X128708028Y-68452786D01*
X128587715Y-68618386D01*
X128540485Y-68711080D01*
X128492510Y-68761876D01*
X128424689Y-68778671D01*
X128358554Y-68756134D01*
X128319515Y-68711080D01*
X128305772Y-68684108D01*
X128272287Y-68618390D01*
X128242965Y-68578031D01*
X128151971Y-68452786D01*
X128007213Y-68308028D01*
X127841613Y-68187715D01*
X127841612Y-68187714D01*
X127841610Y-68187713D01*
X127757122Y-68144664D01*
X127659223Y-68094781D01*
X127464534Y-68031522D01*
X127289995Y-68003878D01*
X127262352Y-67999500D01*
X127057648Y-67999500D01*
X127033329Y-68003351D01*
X126855465Y-68031522D01*
X126660776Y-68094781D01*
X126478386Y-68187715D01*
X126312786Y-68308028D01*
X126168028Y-68452786D01*
X126047715Y-68618386D01*
X126000485Y-68711080D01*
X125952510Y-68761876D01*
X125884689Y-68778671D01*
X125818554Y-68756134D01*
X125779515Y-68711080D01*
X125765772Y-68684108D01*
X125732287Y-68618390D01*
X125702965Y-68578031D01*
X125611971Y-68452786D01*
X125467213Y-68308028D01*
X125301613Y-68187715D01*
X125301612Y-68187714D01*
X125301610Y-68187713D01*
X125217122Y-68144664D01*
X125119223Y-68094781D01*
X124924534Y-68031522D01*
X124749995Y-68003878D01*
X124722352Y-67999500D01*
X124517648Y-67999500D01*
X124493329Y-68003351D01*
X124315465Y-68031522D01*
X124120776Y-68094781D01*
X123938386Y-68187715D01*
X123772786Y-68308028D01*
X123628028Y-68452786D01*
X123507715Y-68618386D01*
X123460485Y-68711080D01*
X123412510Y-68761876D01*
X123344689Y-68778671D01*
X123278554Y-68756134D01*
X123239515Y-68711080D01*
X123225772Y-68684108D01*
X123192287Y-68618390D01*
X123162965Y-68578031D01*
X123071971Y-68452786D01*
X122927213Y-68308028D01*
X122761613Y-68187715D01*
X122761612Y-68187714D01*
X122761610Y-68187713D01*
X122677122Y-68144664D01*
X122579223Y-68094781D01*
X122384534Y-68031522D01*
X122209995Y-68003878D01*
X122182352Y-67999500D01*
X121977648Y-67999500D01*
X121953329Y-68003351D01*
X121775465Y-68031522D01*
X121580776Y-68094781D01*
X121398386Y-68187715D01*
X121232786Y-68308028D01*
X121088028Y-68452786D01*
X120967715Y-68618386D01*
X120920485Y-68711080D01*
X120872510Y-68761876D01*
X120804689Y-68778671D01*
X120738554Y-68756134D01*
X120699515Y-68711080D01*
X120685772Y-68684108D01*
X120652287Y-68618390D01*
X120622965Y-68578031D01*
X120531971Y-68452786D01*
X120387213Y-68308028D01*
X120221613Y-68187715D01*
X120221612Y-68187714D01*
X120221610Y-68187713D01*
X120137122Y-68144664D01*
X120039223Y-68094781D01*
X119844534Y-68031522D01*
X119669995Y-68003878D01*
X119642352Y-67999500D01*
X119437648Y-67999500D01*
X119413329Y-68003351D01*
X119235465Y-68031522D01*
X119040776Y-68094781D01*
X118858386Y-68187715D01*
X118692786Y-68308028D01*
X118548028Y-68452786D01*
X118427715Y-68618386D01*
X118380485Y-68711080D01*
X118332510Y-68761876D01*
X118264689Y-68778671D01*
X118198554Y-68756134D01*
X118159515Y-68711080D01*
X118145772Y-68684108D01*
X118112287Y-68618390D01*
X118082965Y-68578031D01*
X117991971Y-68452786D01*
X117847213Y-68308028D01*
X117681613Y-68187715D01*
X117681612Y-68187714D01*
X117681610Y-68187713D01*
X117597122Y-68144664D01*
X117499223Y-68094781D01*
X117304534Y-68031522D01*
X117129995Y-68003878D01*
X117102352Y-67999500D01*
X116897648Y-67999500D01*
X116873329Y-68003351D01*
X116695465Y-68031522D01*
X116500776Y-68094781D01*
X116318386Y-68187715D01*
X116152786Y-68308028D01*
X116008028Y-68452786D01*
X115887715Y-68618386D01*
X115834485Y-68722855D01*
X115786510Y-68773651D01*
X115718689Y-68790446D01*
X115652554Y-68767908D01*
X115609103Y-68713193D01*
X115600000Y-68666560D01*
X115600000Y-68110000D01*
X113504686Y-68110000D01*
X113437647Y-68090315D01*
X113391892Y-68037511D01*
X113381948Y-67968353D01*
X113386296Y-67949125D01*
X113410704Y-67870797D01*
X113415997Y-67856842D01*
X113533727Y-67595258D01*
X113540680Y-67582012D01*
X113580959Y-67515381D01*
X113689075Y-67336534D01*
X113697567Y-67324230D01*
X113874481Y-67098417D01*
X113884396Y-67087226D01*
X114087226Y-66884396D01*
X114098417Y-66874481D01*
X114324230Y-66697567D01*
X114336534Y-66689075D01*
X114582012Y-66540680D01*
X114595258Y-66533727D01*
X114856842Y-66415997D01*
X114870812Y-66410699D01*
X115144668Y-66325362D01*
X115159198Y-66321780D01*
X115441344Y-66270075D01*
X115456201Y-66268271D01*
X115746264Y-66250726D01*
X115753751Y-66250500D01*
X115815892Y-66250500D01*
X167434108Y-66250500D01*
X167496249Y-66250500D01*
X167503736Y-66250726D01*
G37*
%TD.AperFunction*%
%TD*%
M02*
