M48
; DRILL file KiCad 10.0.6 date 2026-10-03T14:51:16
; FORMAT={-:-/ absolute / metric / decimal}
; #@! TF.CreationDate,2026-10-03T14:51:16-04:00
; #@! TF.GenerationSoftware,Kicad,Pcbnew,10.0.6
; #@! TF.FileFunction,MixedPlating,1,2
FMAT,2
METRIC
; #@! TA.AperFunction,Plated,PTH,ComponentDrill
T1C0.800
; #@! TA.AperFunction,Plated,PTH,ComponentDrill
T2C0.900
; #@! TA.AperFunction,Plated,PTH,ComponentDrill
T3C0.950
; #@! TA.AperFunction,Plated,PTH,ComponentDrill
T4C1.000
; #@! TA.AperFunction,Plated,PTH,ComponentDrill
T5C1.020
; #@! TA.AperFunction,Plated,PTH,ComponentDrill
T6C1.300
; #@! TA.AperFunction,Plated,PTH,ComponentDrill
T7C2.000
; #@! TA.AperFunction,NonPlated,NPTH,ComponentDrill
T8C1.100
; #@! TA.AperFunction,NonPlated,NPTH,ComponentDrill
T9C2.400
%
G90
G05
T1
X160.75Y-82.94
X160.75Y-90.56
T2
X117.0Y-69.5
X117.0Y-92.36
X119.54Y-69.5
X119.54Y-92.36
X122.08Y-69.5
X122.08Y-92.36
X124.62Y-69.5
X124.62Y-92.36
X127.16Y-69.5
X127.16Y-92.36
X129.7Y-69.5
X129.7Y-92.36
X132.24Y-69.5
X132.24Y-92.36
X134.78Y-69.5
X134.78Y-92.36
T3
X166.25Y-84.25
X166.25Y-86.75
X166.25Y-89.25
T4
X148.75Y-71.0
X148.75Y-73.54
X148.75Y-76.08
X148.75Y-78.62
X155.75Y-71.0
X155.75Y-73.54
X155.75Y-76.08
X155.75Y-78.62
X165.5Y-71.71
X165.5Y-74.25
X165.5Y-76.79
T5
X150.38Y-103.0
X152.92Y-103.0
X155.46Y-103.0
X158.0Y-103.0
X165.0Y-97.0
X165.0Y-99.54
X165.0Y-102.08
X165.0Y-104.62
T6
X118.455Y-101.422
X123.535Y-101.422
T7
X133.05Y-102.0
X142.25Y-102.0
T8
X152.92Y-105.16
X167.16Y-102.08
T9
X137.65Y-103.2
M30
