%TF.GenerationSoftware,KiCad,Pcbnew,10.0.6*%
%TF.CreationDate,2026-10-04T08:22:04-04:00*%
%TF.ProjectId,board,626f6172-642e-46b6-9963-61645f706362,rev?*%
%TF.SameCoordinates,Original*%
%TF.FileFunction,Copper,L1,Top*%
%TF.FilePolarity,Positive*%
%FSLAX46Y46*%
G04 Gerber Fmt 4.6, Leading zero omitted, Abs format (unit mm)*
G04 Created by KiCad (PCBNEW 10.0.6) date 2026-10-04 08:22:04*
%MOMM*%
%LPD*%
G01*
G04 APERTURE LIST*
G04 Aperture macros list*
%AMRoundRect*
0 Rectangle with rounded corners*
0 $1 Rounding radius*
0 $2 $3 $4 $5 $6 $7 $8 $9 X,Y pos of 4 corners*
0 Add a 4 corners polygon primitive as box body*
4,1,4,$2,$3,$4,$5,$6,$7,$8,$9,$2,$3,0*
0 Add four circle primitives for the rounded corners*
1,1,$1+$1,$2,$3*
1,1,$1+$1,$4,$5*
1,1,$1+$1,$6,$7*
1,1,$1+$1,$8,$9*
0 Add four rect primitives between the rounded corners*
20,1,$1+$1,$2,$3,$4,$5,0*
20,1,$1+$1,$4,$5,$6,$7,0*
20,1,$1+$1,$6,$7,$8,$9,0*
20,1,$1+$1,$8,$9,$2,$3,0*%
G04 Aperture macros list end*
%TA.AperFunction,ComponentPad*%
%ADD10C,2.780000*%
%TD*%
%TA.AperFunction,ComponentPad*%
%ADD11RoundRect,0.250000X-1.050000X1.050000X-1.050000X-1.050000X1.050000X-1.050000X1.050000X1.050000X0*%
%TD*%
%TA.AperFunction,ComponentPad*%
%ADD12C,2.600000*%
%TD*%
%TA.AperFunction,ComponentPad*%
%ADD13R,1.700000X1.700000*%
%TD*%
%TA.AperFunction,ComponentPad*%
%ADD14C,1.700000*%
%TD*%
%TA.AperFunction,ComponentPad*%
%ADD15R,1.730000X2.030000*%
%TD*%
%TA.AperFunction,ComponentPad*%
%ADD16O,1.730000X2.030000*%
%TD*%
%TA.AperFunction,ComponentPad*%
%ADD17C,1.600000*%
%TD*%
%TA.AperFunction,ComponentPad*%
%ADD18RoundRect,0.250000X-0.600000X-0.725000X0.600000X-0.725000X0.600000X0.725000X-0.600000X0.725000X0*%
%TD*%
%TA.AperFunction,ComponentPad*%
%ADD19O,1.700000X1.950000*%
%TD*%
%TA.AperFunction,ComponentPad*%
%ADD20RoundRect,0.250000X-0.550000X-0.550000X0.550000X-0.550000X0.550000X0.550000X-0.550000X0.550000X0*%
%TD*%
%TA.AperFunction,ComponentPad*%
%ADD21R,2.000000X2.000000*%
%TD*%
%TA.AperFunction,ComponentPad*%
%ADD22O,2.000000X1.600000*%
%TD*%
%TA.AperFunction,ViaPad*%
%ADD23C,0.600000*%
%TD*%
%TA.AperFunction,Conductor*%
%ADD24C,1.500000*%
%TD*%
%TA.AperFunction,Conductor*%
%ADD25C,0.300000*%
%TD*%
G04 APERTURE END LIST*
D10*
%TO.P,F1,1*%
%TO.N,Net-(JPOW1-Pin_1)*%
X101450000Y-58790000D03*
X98050000Y-58790000D03*
%TO.P,F1,2*%
%TO.N,+12V*%
X101450000Y-68710000D03*
X98050000Y-68710000D03*
%TD*%
D11*
%TO.P,JPOW1,1,Pin_1_1*%
%TO.N,Net-(JPOW1-Pin_1)*%
X100500000Y-44170000D03*
D12*
%TO.P,JPOW1,2,Pin_2_2*%
%TO.N,GND*%
X100500000Y-49250000D03*
%TD*%
D13*
%TO.P,JMQ1,1,Pin_1_1*%
%TO.N,+5V*%
X161750000Y-47380000D03*
D14*
%TO.P,JMQ1,2,Pin_2_2*%
%TO.N,GND*%
X161750000Y-49920000D03*
%TO.P,JMQ1,3,Pin_3_3*%
%TO.N,unconnected-(JMQ1-Pin_3-Pad3)*%
X161750000Y-52460000D03*
%TO.P,JMQ1,4,Pin_4_4*%
%TO.N,/AO*%
X161750000Y-55000000D03*
%TD*%
D15*
%TO.P,JFAN2,1,Pin_1_1*%
%TO.N,GND*%
X132580000Y-80590000D03*
D16*
%TO.P,JFAN2,2,Pin_2_2*%
%TO.N,+12V*%
X130040000Y-80590000D03*
%TO.P,JFAN2,3,Pin_3_3*%
%TO.N,unconnected-(JFAN2-Pin_3-Pad3)*%
X127500000Y-80590000D03*
%TO.P,JFAN2,4,Pin_4_4*%
%TO.N,/PWM_2*%
X124960000Y-80590000D03*
%TD*%
D13*
%TO.P,JBUCK1,1,Pin_1_1*%
%TO.N,+12V*%
X149250000Y-63500000D03*
D14*
%TO.P,JBUCK1,2,Pin_2_2*%
%TO.N,GND*%
X149250000Y-60960000D03*
%TO.P,JBUCK1,3,Pin_3_3*%
%TO.N,+5V*%
X149250000Y-58420000D03*
%TO.P,JBUCK1,4,Pin_4_4*%
%TO.N,GND*%
X149250000Y-55880000D03*
%TD*%
D17*
%TO.P,C3,1*%
%TO.N,+5V*%
X137500000Y-60000000D03*
%TO.P,C3,2*%
%TO.N,GND*%
X142500000Y-60000000D03*
%TD*%
%TO.P,R1,1*%
%TO.N,/LED_R*%
X151000000Y-83560000D03*
%TO.P,R1,2*%
%TO.N,/LED_DATA*%
X151000000Y-75940000D03*
%TD*%
D13*
%TO.P,JDHT1,1,Pin_1_1*%
%TO.N,+3.3V*%
X161750000Y-72250000D03*
D14*
%TO.P,JDHT1,2,Pin_2_2*%
%TO.N,/DHT_DATA*%
X161750000Y-69710000D03*
%TO.P,JDHT1,3,Pin_3_3*%
%TO.N,GND*%
X161750000Y-67170000D03*
%TD*%
D15*
%TO.P,JFAN1,1,Pin_1_1*%
%TO.N,GND*%
X117370000Y-80750000D03*
D16*
%TO.P,JFAN1,2,Pin_2_2*%
%TO.N,+12V*%
X114830000Y-80750000D03*
%TO.P,JFAN1,3,Pin_3_3*%
%TO.N,unconnected-(JFAN1-Pin_3-Pad3)*%
X112290000Y-80750000D03*
%TO.P,JFAN1,4,Pin_4_4*%
%TO.N,/PWM_1*%
X109750000Y-80750000D03*
%TD*%
D18*
%TO.P,JLED1,1,Pin_1_1*%
%TO.N,+12V*%
X141000000Y-80725000D03*
D19*
%TO.P,JLED1,2,Pin_2_2*%
%TO.N,/LED_R*%
X143500000Y-80725000D03*
%TO.P,JLED1,3,Pin_3_3*%
%TO.N,GND*%
X146000000Y-80725000D03*
%TD*%
D20*
%TO.P,C2,1*%
%TO.N,+5V*%
X138097300Y-52750000D03*
D17*
%TO.P,C2,2*%
%TO.N,GND*%
X141597300Y-52750000D03*
%TD*%
D20*
%TO.P,C1,1*%
%TO.N,+12V*%
X98597300Y-80000000D03*
D17*
%TO.P,C1,2*%
%TO.N,GND*%
X102097300Y-80000000D03*
%TD*%
%TO.P,R2,1*%
%TO.N,/AO_R*%
X136690000Y-45000000D03*
%TO.P,R2,2*%
%TO.N,/AO*%
X144310000Y-45000000D03*
%TD*%
D21*
%TO.P,U1,1,~{RST}_1*%
%TO.N,unconnected-(U1-~{RST}-Pad1)*%
X110000000Y-48470000D03*
D22*
%TO.P,U1,2,A0_2*%
%TO.N,/AO_R*%
X110000000Y-51010000D03*
%TO.P,U1,3,D0_3*%
%TO.N,unconnected-(U1-D0-Pad3)*%
X110000000Y-53550000D03*
%TO.P,U1,4,SCK/D5_4*%
%TO.N,/LED_DATA*%
X110000000Y-56090000D03*
%TO.P,U1,5,MISO/D6_5*%
%TO.N,/DHT_DATA*%
X110000000Y-58630000D03*
%TO.P,U1,6,MOSI/D7_6*%
%TO.N,unconnected-(U1-MOSI{slash}D7-Pad6)*%
X110000000Y-61170000D03*
%TO.P,U1,7,CS/D8_7*%
%TO.N,unconnected-(U1-CS{slash}D8-Pad7)*%
X110000000Y-63710000D03*
%TO.P,U1,8,3V3_8*%
%TO.N,+3.3V*%
X110000000Y-66250000D03*
%TO.P,U1,9,5V_9*%
%TO.N,+5V*%
X132860000Y-66250000D03*
%TO.P,U1,10,GND_10*%
%TO.N,GND*%
X132860000Y-63710000D03*
%TO.P,U1,11,D4_11*%
%TO.N,unconnected-(U1-D4-Pad11)*%
X132860000Y-61170000D03*
%TO.P,U1,12,D3_12*%
%TO.N,unconnected-(U1-D3-Pad12)*%
X132860000Y-58630000D03*
%TO.P,U1,13,SDA/D2_13*%
%TO.N,/PWM_2*%
X132860000Y-56090000D03*
%TO.P,U1,14,SCL/D1_14*%
%TO.N,/PWM_1*%
X132860000Y-53550000D03*
%TO.P,U1,15,RX_15*%
%TO.N,unconnected-(U1-RX-Pad15)*%
X132860000Y-51010000D03*
%TO.P,U1,16,TX_16*%
%TO.N,unconnected-(U1-TX-Pad16)*%
X132860000Y-48470000D03*
%TD*%
D23*
%TO.N,/LED_DATA*%
X148606600Y-67982900D03*
%TD*%
%TO.N,Net-(JPOW1-Pin_1)*%
D24*
X98050000Y-58790000D02*
X101450000Y-58790000D01*
%TO.N,+12V*%
X101450000Y-68710000D02*
X98050000Y-68710000D01*
X99750000Y-78847300D02*
X98597300Y-80000000D01*
X98050000Y-68710000D02*
X99750000Y-70410000D01*
X99750000Y-70410000D02*
X99750000Y-78847300D01*
%TO.N,Net-(JPOW1-Pin_1)*%
X100500000Y-44170000D02*
X97950000Y-46720000D01*
X97950000Y-58690000D02*
X98050000Y-58790000D01*
X97950000Y-46720000D02*
X97950000Y-58690000D01*
%TO.N,/AO_R*%
D25*
X136690000Y-46490700D02*
X136690000Y-45000000D01*
X133322400Y-49858300D02*
X136690000Y-46490700D01*
X110000000Y-49858300D02*
X133322400Y-49858300D01*
X110000000Y-51010000D02*
X110000000Y-49858300D01*
%TO.N,/DHT_DATA*%
X160710200Y-68670200D02*
X161750000Y-69710000D01*
X120040200Y-68670200D02*
X160710200Y-68670200D01*
X111151700Y-59781700D02*
X120040200Y-68670200D01*
X110000000Y-59781700D02*
X111151700Y-59781700D01*
X110000000Y-58630000D02*
X110000000Y-59781700D01*
%TO.N,+3.3V*%
D24*
X113750000Y-70000000D02*
X110000000Y-66250000D01*
X159494000Y-70000000D02*
X113750000Y-70000000D01*
X161744000Y-72250000D02*
X159494000Y-70000000D01*
X161750000Y-72250000D02*
X161744000Y-72250000D01*
%TO.N,/LED_DATA*%
D25*
X121892900Y-67982900D02*
X148606600Y-67982900D01*
X111151700Y-57241700D02*
X121892900Y-67982900D01*
X110000000Y-57241700D02*
X111151700Y-57241700D01*
X110000000Y-56090000D02*
X110000000Y-57241700D01*
%TO.N,/LED_R*%
X146335000Y-83560000D02*
X151000000Y-83560000D01*
X143500000Y-80725000D02*
X146335000Y-83560000D01*
%TO.N,+5V*%
D24*
X161320000Y-47380000D02*
X161750000Y-47380000D01*
X150280000Y-58420000D02*
X161320000Y-47380000D01*
X149250000Y-58420000D02*
X150280000Y-58420000D01*
X133419000Y-66250000D02*
X132860000Y-66250000D01*
X137500000Y-62169100D02*
X133419000Y-66250000D01*
X137500000Y-60000000D02*
X137500000Y-62169100D01*
X137500000Y-53347300D02*
X138097000Y-52750000D01*
X137500000Y-60000000D02*
X137500000Y-53347300D01*
X139550000Y-57950000D02*
X137500000Y-60000000D01*
X148780000Y-57950000D02*
X139550000Y-57950000D01*
X149250000Y-58420000D02*
X148780000Y-57950000D01*
%TO.N,+12V*%
X130040000Y-80590000D02*
X130040000Y-78750000D01*
X138600000Y-78325000D02*
X141000000Y-80725000D01*
X130465000Y-78325000D02*
X138600000Y-78325000D01*
X130040000Y-78750000D02*
X130465000Y-78325000D01*
X114830000Y-78910000D02*
X115415000Y-78325000D01*
X114830000Y-80750000D02*
X114830000Y-78910000D01*
X130040000Y-79988900D02*
X130040000Y-80590000D01*
X128376000Y-78325000D02*
X130040000Y-79988900D01*
X115415000Y-78325000D02*
X128376000Y-78325000D01*
X100647000Y-77950000D02*
X112631000Y-77950000D01*
X98597300Y-80000000D02*
X100647000Y-77950000D01*
X114830000Y-80148900D02*
X114830000Y-80750000D01*
X112631000Y-77950000D02*
X114830000Y-80148900D01*
%TD*%
M02*
