M48
; DRILL file KiCad 10.0.6 date 2026-10-04T08:21:55
; FORMAT={-:-/ absolute / metric / decimal}
; #@! TF.CreationDate,2026-10-04T08:21:55-04:00
; #@! TF.GenerationSoftware,Kicad,Pcbnew,10.0.6
; #@! TF.FileFunction,MixedPlating,1,2
FMAT,2
METRIC
; #@! TA.AperFunction,Plated,PTH,ViaDrill
T1C0.300
; #@! TA.AperFunction,Plated,PTH,ComponentDrill
T2C0.800
; #@! TA.AperFunction,Plated,PTH,ComponentDrill
T3C0.900
; #@! TA.AperFunction,Plated,PTH,ComponentDrill
T4C0.950
; #@! TA.AperFunction,Plated,PTH,ComponentDrill
T5C1.000
; #@! TA.AperFunction,Plated,PTH,ComponentDrill
T6C1.020
; #@! TA.AperFunction,Plated,PTH,ComponentDrill
T7C1.300
; #@! TA.AperFunction,Plated,PTH,ComponentDrill
T8C1.780
; #@! TA.AperFunction,NonPlated,NPTH,ComponentDrill
T9C1.100
%
G90
G05
T1
X148.607Y-67.983
T2
X98.597Y-80.0
X102.097Y-80.0
X136.69Y-45.0
X137.5Y-60.0
X138.097Y-52.75
X141.597Y-52.75
X142.5Y-60.0
X144.31Y-45.0
X151.0Y-75.94
X151.0Y-83.56
T3
X110.0Y-48.47
X110.0Y-51.01
X110.0Y-53.55
X110.0Y-56.09
X110.0Y-58.63
X110.0Y-61.17
X110.0Y-63.71
X110.0Y-66.25
X132.86Y-48.47
X132.86Y-51.01
X132.86Y-53.55
X132.86Y-56.09
X132.86Y-58.63
X132.86Y-61.17
X132.86Y-63.71
X132.86Y-66.25
T4
X141.0Y-80.725
X143.5Y-80.725
X146.0Y-80.725
T5
X149.25Y-55.88
X149.25Y-58.42
X149.25Y-60.96
X149.25Y-63.5
X161.75Y-47.38
X161.75Y-49.92
X161.75Y-52.46
X161.75Y-55.0
X161.75Y-67.17
X161.75Y-69.71
X161.75Y-72.25
T6
X109.75Y-80.75
X112.29Y-80.75
X114.83Y-80.75
X117.37Y-80.75
X124.96Y-80.59
X127.5Y-80.59
X130.04Y-80.59
X132.58Y-80.59
T7
X100.5Y-44.17
X100.5Y-49.25
T8
X98.05Y-58.79
X98.05Y-68.71
X101.45Y-58.79
X101.45Y-68.71
T9
X112.29Y-82.91
X127.5Y-82.75
M30
