%TF.GenerationSoftware,KiCad,Pcbnew,10.0.6*%
%TF.CreationDate,2026-10-04T08:22:05-04:00*%
%TF.ProjectId,board,626f6172-642e-46b6-9963-61645f706362,rev?*%
%TF.SameCoordinates,Original*%
%TF.FileFunction,Soldermask,Top*%
%TF.FilePolarity,Negative*%
%FSLAX46Y46*%
G04 Gerber Fmt 4.6, Leading zero omitted, Abs format (unit mm)*
G04 Created by KiCad (PCBNEW 10.0.6) date 2026-10-04 08:22:05*
%MOMM*%
%LPD*%
G01*
G04 APERTURE LIST*
G04 Aperture macros list*
%AMRoundRect*
0 Rectangle with rounded corners*
0 $1 Rounding radius*
0 $2 $3 $4 $5 $6 $7 $8 $9 X,Y pos of 4 corners*
0 Add a 4 corners polygon primitive as box body*
4,1,4,$2,$3,$4,$5,$6,$7,$8,$9,$2,$3,0*
0 Add four circle primitives for the rounded corners*
1,1,$1+$1,$2,$3*
1,1,$1+$1,$4,$5*
1,1,$1+$1,$6,$7*
1,1,$1+$1,$8,$9*
0 Add four rect primitives between the rounded corners*
20,1,$1+$1,$2,$3,$4,$5,0*
20,1,$1+$1,$4,$5,$6,$7,0*
20,1,$1+$1,$6,$7,$8,$9,0*
20,1,$1+$1,$8,$9,$2,$3,0*%
G04 Aperture macros list end*
%ADD10C,2.780000*%
%ADD11RoundRect,0.250000X-1.050000X1.050000X-1.050000X-1.050000X1.050000X-1.050000X1.050000X1.050000X0*%
%ADD12C,2.600000*%
%ADD13R,1.700000X1.700000*%
%ADD14C,1.700000*%
%ADD15C,1.100000*%
%ADD16R,1.730000X2.030000*%
%ADD17O,1.730000X2.030000*%
%ADD18C,1.600000*%
%ADD19RoundRect,0.250000X-0.600000X-0.725000X0.600000X-0.725000X0.600000X0.725000X-0.600000X0.725000X0*%
%ADD20O,1.700000X1.950000*%
%ADD21RoundRect,0.250000X-0.550000X-0.550000X0.550000X-0.550000X0.550000X0.550000X-0.550000X0.550000X0*%
%ADD22R,2.000000X2.000000*%
%ADD23O,2.000000X1.600000*%
G04 APERTURE END LIST*
D10*
%TO.C,F1*%
X101450000Y-58790000D03*
X98050000Y-58790000D03*
X101450000Y-68710000D03*
X98050000Y-68710000D03*
%TD*%
D11*
%TO.C,JPOW1*%
X100500000Y-44170000D03*
D12*
X100500000Y-49250000D03*
%TD*%
D13*
%TO.C,JMQ1*%
X161750000Y-47380000D03*
D14*
X161750000Y-49920000D03*
X161750000Y-52460000D03*
X161750000Y-55000000D03*
%TD*%
D15*
%TO.C,JFAN2*%
X127500000Y-82750000D03*
D16*
X132580000Y-80590000D03*
D17*
X130040000Y-80590000D03*
X127500000Y-80590000D03*
X124960000Y-80590000D03*
%TD*%
D13*
%TO.C,JBUCK1*%
X149250000Y-63500000D03*
D14*
X149250000Y-60960000D03*
X149250000Y-58420000D03*
X149250000Y-55880000D03*
%TD*%
D18*
%TO.C,C3*%
X137500000Y-60000000D03*
X142500000Y-60000000D03*
%TD*%
%TO.C,R1*%
X151000000Y-83560000D03*
X151000000Y-75940000D03*
%TD*%
D13*
%TO.C,JDHT1*%
X161750000Y-72250000D03*
D14*
X161750000Y-69710000D03*
X161750000Y-67170000D03*
%TD*%
D15*
%TO.C,JFAN1*%
X112290000Y-82910000D03*
D16*
X117370000Y-80750000D03*
D17*
X114830000Y-80750000D03*
X112290000Y-80750000D03*
X109750000Y-80750000D03*
%TD*%
D19*
%TO.C,JLED1*%
X141000000Y-80725000D03*
D20*
X143500000Y-80725000D03*
X146000000Y-80725000D03*
%TD*%
D21*
%TO.C,C2*%
X138097300Y-52750000D03*
D18*
X141597300Y-52750000D03*
%TD*%
D21*
%TO.C,C1*%
X98597300Y-80000000D03*
D18*
X102097300Y-80000000D03*
%TD*%
%TO.C,R2*%
X136690000Y-45000000D03*
X144310000Y-45000000D03*
%TD*%
D22*
%TO.C,U1*%
X110000000Y-48470000D03*
D23*
X110000000Y-51010000D03*
X110000000Y-53550000D03*
X110000000Y-56090000D03*
X110000000Y-58630000D03*
X110000000Y-61170000D03*
X110000000Y-63710000D03*
X110000000Y-66250000D03*
X132860000Y-66250000D03*
X132860000Y-63710000D03*
X132860000Y-61170000D03*
X132860000Y-58630000D03*
X132860000Y-56090000D03*
X132860000Y-53550000D03*
X132860000Y-51010000D03*
X132860000Y-48470000D03*
%TD*%
M02*
