%TF.GenerationSoftware,KiCad,Pcbnew,10.0.6*%
%TF.CreationDate,2026-10-03T14:51:26-04:00*%
%TF.ProjectId,board,626f6172-642e-46b6-9963-61645f706362,rev?*%
%TF.SameCoordinates,Original*%
%TF.FileFunction,Legend,Top*%
%TF.FilePolarity,Positive*%
%FSLAX46Y46*%
G04 Gerber Fmt 4.6, Leading zero omitted, Abs format (unit mm)*
G04 Created by KiCad (PCBNEW 10.0.6) date 2026-10-03 14:51:26*
%MOMM*%
%LPD*%
G01*
G04 APERTURE LIST*
%ADD10C,0.250000*%
%ADD11C,0.150000*%
%ADD12C,0.120000*%
G04 APERTURE END LIST*
D10*
X118640663Y-80022350D02*
X118640663Y-78022350D01*
X118640663Y-78022350D02*
X119307330Y-79450921D01*
X119307330Y-79450921D02*
X119973996Y-78022350D01*
X119973996Y-78022350D02*
X119973996Y-80022350D01*
X121783520Y-80022350D02*
X121783520Y-78974731D01*
X121783520Y-78974731D02*
X121688282Y-78784254D01*
X121688282Y-78784254D02*
X121497806Y-78689016D01*
X121497806Y-78689016D02*
X121116853Y-78689016D01*
X121116853Y-78689016D02*
X120926377Y-78784254D01*
X121783520Y-79927112D02*
X121593044Y-80022350D01*
X121593044Y-80022350D02*
X121116853Y-80022350D01*
X121116853Y-80022350D02*
X120926377Y-79927112D01*
X120926377Y-79927112D02*
X120831139Y-79736635D01*
X120831139Y-79736635D02*
X120831139Y-79546159D01*
X120831139Y-79546159D02*
X120926377Y-79355683D01*
X120926377Y-79355683D02*
X121116853Y-79260445D01*
X121116853Y-79260445D02*
X121593044Y-79260445D01*
X121593044Y-79260445D02*
X121783520Y-79165207D01*
X123593044Y-80022350D02*
X123593044Y-78022350D01*
X123593044Y-79927112D02*
X123402568Y-80022350D01*
X123402568Y-80022350D02*
X123021615Y-80022350D01*
X123021615Y-80022350D02*
X122831139Y-79927112D01*
X122831139Y-79927112D02*
X122735901Y-79831873D01*
X122735901Y-79831873D02*
X122640663Y-79641397D01*
X122640663Y-79641397D02*
X122640663Y-79069969D01*
X122640663Y-79069969D02*
X122735901Y-78879492D01*
X122735901Y-78879492D02*
X122831139Y-78784254D01*
X122831139Y-78784254D02*
X123021615Y-78689016D01*
X123021615Y-78689016D02*
X123402568Y-78689016D01*
X123402568Y-78689016D02*
X123593044Y-78784254D01*
X125307330Y-79927112D02*
X125116854Y-80022350D01*
X125116854Y-80022350D02*
X124735901Y-80022350D01*
X124735901Y-80022350D02*
X124545425Y-79927112D01*
X124545425Y-79927112D02*
X124450187Y-79736635D01*
X124450187Y-79736635D02*
X124450187Y-78974731D01*
X124450187Y-78974731D02*
X124545425Y-78784254D01*
X124545425Y-78784254D02*
X124735901Y-78689016D01*
X124735901Y-78689016D02*
X125116854Y-78689016D01*
X125116854Y-78689016D02*
X125307330Y-78784254D01*
X125307330Y-78784254D02*
X125402568Y-78974731D01*
X125402568Y-78974731D02*
X125402568Y-79165207D01*
X125402568Y-79165207D02*
X124450187Y-79355683D01*
X127593045Y-78689016D02*
X127973997Y-80022350D01*
X127973997Y-80022350D02*
X128354950Y-79069969D01*
X128354950Y-79069969D02*
X128735902Y-80022350D01*
X128735902Y-80022350D02*
X129116854Y-78689016D01*
X129878759Y-80022350D02*
X129878759Y-78689016D01*
X129878759Y-78022350D02*
X129783521Y-78117588D01*
X129783521Y-78117588D02*
X129878759Y-78212826D01*
X129878759Y-78212826D02*
X129973997Y-78117588D01*
X129973997Y-78117588D02*
X129878759Y-78022350D01*
X129878759Y-78022350D02*
X129878759Y-78212826D01*
X130545426Y-78689016D02*
X131307330Y-78689016D01*
X130831140Y-78022350D02*
X130831140Y-79736635D01*
X130831140Y-79736635D02*
X130926378Y-79927112D01*
X130926378Y-79927112D02*
X131116854Y-80022350D01*
X131116854Y-80022350D02*
X131307330Y-80022350D01*
X131973997Y-80022350D02*
X131973997Y-78022350D01*
X132831140Y-80022350D02*
X132831140Y-78974731D01*
X132831140Y-78974731D02*
X132735902Y-78784254D01*
X132735902Y-78784254D02*
X132545426Y-78689016D01*
X132545426Y-78689016D02*
X132259711Y-78689016D01*
X132259711Y-78689016D02*
X132069235Y-78784254D01*
X132069235Y-78784254D02*
X131973997Y-78879492D01*
X135593045Y-80022350D02*
X135402569Y-79927112D01*
X135402569Y-79927112D02*
X135307331Y-79736635D01*
X135307331Y-79736635D02*
X135307331Y-78022350D01*
X136640664Y-80022350D02*
X136450188Y-79927112D01*
X136450188Y-79927112D02*
X136354950Y-79831873D01*
X136354950Y-79831873D02*
X136259712Y-79641397D01*
X136259712Y-79641397D02*
X136259712Y-79069969D01*
X136259712Y-79069969D02*
X136354950Y-78879492D01*
X136354950Y-78879492D02*
X136450188Y-78784254D01*
X136450188Y-78784254D02*
X136640664Y-78689016D01*
X136640664Y-78689016D02*
X136926379Y-78689016D01*
X136926379Y-78689016D02*
X137116855Y-78784254D01*
X137116855Y-78784254D02*
X137212093Y-78879492D01*
X137212093Y-78879492D02*
X137307331Y-79069969D01*
X137307331Y-79069969D02*
X137307331Y-79641397D01*
X137307331Y-79641397D02*
X137212093Y-79831873D01*
X137212093Y-79831873D02*
X137116855Y-79927112D01*
X137116855Y-79927112D02*
X136926379Y-80022350D01*
X136926379Y-80022350D02*
X136640664Y-80022350D01*
X137973998Y-78689016D02*
X138450188Y-80022350D01*
X138450188Y-80022350D02*
X138926379Y-78689016D01*
X140450189Y-79927112D02*
X140259713Y-80022350D01*
X140259713Y-80022350D02*
X139878760Y-80022350D01*
X139878760Y-80022350D02*
X139688284Y-79927112D01*
X139688284Y-79927112D02*
X139593046Y-79736635D01*
X139593046Y-79736635D02*
X139593046Y-78974731D01*
X139593046Y-78974731D02*
X139688284Y-78784254D01*
X139688284Y-78784254D02*
X139878760Y-78689016D01*
X139878760Y-78689016D02*
X140259713Y-78689016D01*
X140259713Y-78689016D02*
X140450189Y-78784254D01*
X140450189Y-78784254D02*
X140545427Y-78974731D01*
X140545427Y-78974731D02*
X140545427Y-79165207D01*
X140545427Y-79165207D02*
X139593046Y-79355683D01*
X118640663Y-83242238D02*
X118640663Y-81242238D01*
X118640663Y-82004142D02*
X118831139Y-81908904D01*
X118831139Y-81908904D02*
X119212092Y-81908904D01*
X119212092Y-81908904D02*
X119402568Y-82004142D01*
X119402568Y-82004142D02*
X119497806Y-82099380D01*
X119497806Y-82099380D02*
X119593044Y-82289857D01*
X119593044Y-82289857D02*
X119593044Y-82861285D01*
X119593044Y-82861285D02*
X119497806Y-83051761D01*
X119497806Y-83051761D02*
X119402568Y-83147000D01*
X119402568Y-83147000D02*
X119212092Y-83242238D01*
X119212092Y-83242238D02*
X118831139Y-83242238D01*
X118831139Y-83242238D02*
X118640663Y-83147000D01*
X120259711Y-81908904D02*
X120735901Y-83242238D01*
X121212092Y-81908904D02*
X120735901Y-83242238D01*
X120735901Y-83242238D02*
X120545425Y-83718428D01*
X120545425Y-83718428D02*
X120450187Y-83813666D01*
X120450187Y-83813666D02*
X120259711Y-83908904D01*
X123402569Y-82670809D02*
X124354950Y-82670809D01*
X123212093Y-83242238D02*
X123878759Y-81242238D01*
X123878759Y-81242238D02*
X124545426Y-83242238D01*
X125212093Y-81908904D02*
X125212093Y-83242238D01*
X125212093Y-82099380D02*
X125307331Y-82004142D01*
X125307331Y-82004142D02*
X125497807Y-81908904D01*
X125497807Y-81908904D02*
X125783522Y-81908904D01*
X125783522Y-81908904D02*
X125973998Y-82004142D01*
X125973998Y-82004142D02*
X126069236Y-82194619D01*
X126069236Y-82194619D02*
X126069236Y-83242238D01*
X127021617Y-83242238D02*
X127021617Y-81908904D01*
X127021617Y-81242238D02*
X126926379Y-81337476D01*
X126926379Y-81337476D02*
X127021617Y-81432714D01*
X127021617Y-81432714D02*
X127116855Y-81337476D01*
X127116855Y-81337476D02*
X127021617Y-81242238D01*
X127021617Y-81242238D02*
X127021617Y-81432714D01*
X127973998Y-83242238D02*
X127973998Y-81242238D01*
X128164474Y-82480333D02*
X128735903Y-83242238D01*
X128735903Y-81908904D02*
X127973998Y-82670809D01*
X129593046Y-83242238D02*
X129593046Y-81908904D01*
X129593046Y-81242238D02*
X129497808Y-81337476D01*
X129497808Y-81337476D02*
X129593046Y-81432714D01*
X129593046Y-81432714D02*
X129688284Y-81337476D01*
X129688284Y-81337476D02*
X129593046Y-81242238D01*
X129593046Y-81242238D02*
X129593046Y-81432714D01*
X131973999Y-81432714D02*
X132069237Y-81337476D01*
X132069237Y-81337476D02*
X132259713Y-81242238D01*
X132259713Y-81242238D02*
X132735904Y-81242238D01*
X132735904Y-81242238D02*
X132926380Y-81337476D01*
X132926380Y-81337476D02*
X133021618Y-81432714D01*
X133021618Y-81432714D02*
X133116856Y-81623190D01*
X133116856Y-81623190D02*
X133116856Y-81813666D01*
X133116856Y-81813666D02*
X133021618Y-82099380D01*
X133021618Y-82099380D02*
X131878761Y-83242238D01*
X131878761Y-83242238D02*
X133116856Y-83242238D01*
X134354951Y-81242238D02*
X134545428Y-81242238D01*
X134545428Y-81242238D02*
X134735904Y-81337476D01*
X134735904Y-81337476D02*
X134831142Y-81432714D01*
X134831142Y-81432714D02*
X134926380Y-81623190D01*
X134926380Y-81623190D02*
X135021618Y-82004142D01*
X135021618Y-82004142D02*
X135021618Y-82480333D01*
X135021618Y-82480333D02*
X134926380Y-82861285D01*
X134926380Y-82861285D02*
X134831142Y-83051761D01*
X134831142Y-83051761D02*
X134735904Y-83147000D01*
X134735904Y-83147000D02*
X134545428Y-83242238D01*
X134545428Y-83242238D02*
X134354951Y-83242238D01*
X134354951Y-83242238D02*
X134164475Y-83147000D01*
X134164475Y-83147000D02*
X134069237Y-83051761D01*
X134069237Y-83051761D02*
X133973999Y-82861285D01*
X133973999Y-82861285D02*
X133878761Y-82480333D01*
X133878761Y-82480333D02*
X133878761Y-82004142D01*
X133878761Y-82004142D02*
X133973999Y-81623190D01*
X133973999Y-81623190D02*
X134069237Y-81432714D01*
X134069237Y-81432714D02*
X134164475Y-81337476D01*
X134164475Y-81337476D02*
X134354951Y-81242238D01*
X135783523Y-81432714D02*
X135878761Y-81337476D01*
X135878761Y-81337476D02*
X136069237Y-81242238D01*
X136069237Y-81242238D02*
X136545428Y-81242238D01*
X136545428Y-81242238D02*
X136735904Y-81337476D01*
X136735904Y-81337476D02*
X136831142Y-81432714D01*
X136831142Y-81432714D02*
X136926380Y-81623190D01*
X136926380Y-81623190D02*
X136926380Y-81813666D01*
X136926380Y-81813666D02*
X136831142Y-82099380D01*
X136831142Y-82099380D02*
X135688285Y-83242238D01*
X135688285Y-83242238D02*
X136926380Y-83242238D01*
X138640666Y-81242238D02*
X138259713Y-81242238D01*
X138259713Y-81242238D02*
X138069237Y-81337476D01*
X138069237Y-81337476D02*
X137973999Y-81432714D01*
X137973999Y-81432714D02*
X137783523Y-81718428D01*
X137783523Y-81718428D02*
X137688285Y-82099380D01*
X137688285Y-82099380D02*
X137688285Y-82861285D01*
X137688285Y-82861285D02*
X137783523Y-83051761D01*
X137783523Y-83051761D02*
X137878761Y-83147000D01*
X137878761Y-83147000D02*
X138069237Y-83242238D01*
X138069237Y-83242238D02*
X138450190Y-83242238D01*
X138450190Y-83242238D02*
X138640666Y-83147000D01*
X138640666Y-83147000D02*
X138735904Y-83051761D01*
X138735904Y-83051761D02*
X138831142Y-82861285D01*
X138831142Y-82861285D02*
X138831142Y-82385095D01*
X138831142Y-82385095D02*
X138735904Y-82194619D01*
X138735904Y-82194619D02*
X138640666Y-82099380D01*
X138640666Y-82099380D02*
X138450190Y-82004142D01*
X138450190Y-82004142D02*
X138069237Y-82004142D01*
X138069237Y-82004142D02*
X137878761Y-82099380D01*
X137878761Y-82099380D02*
X137783523Y-82194619D01*
X137783523Y-82194619D02*
X137688285Y-82385095D01*
D11*
X168004819Y-102714285D02*
X168719104Y-102714285D01*
X168719104Y-102714285D02*
X168861961Y-102761904D01*
X168861961Y-102761904D02*
X168957200Y-102857142D01*
X168957200Y-102857142D02*
X169004819Y-102999999D01*
X169004819Y-102999999D02*
X169004819Y-103095237D01*
X168481009Y-101904761D02*
X168481009Y-102238094D01*
X169004819Y-102238094D02*
X168004819Y-102238094D01*
X168004819Y-102238094D02*
X168004819Y-101761904D01*
X168719104Y-101428570D02*
X168719104Y-100952380D01*
X169004819Y-101523808D02*
X168004819Y-101190475D01*
X168004819Y-101190475D02*
X169004819Y-100857142D01*
X169004819Y-100523808D02*
X168004819Y-100523808D01*
X168004819Y-100523808D02*
X169004819Y-99952380D01*
X169004819Y-99952380D02*
X168004819Y-99952380D01*
X169004819Y-98952380D02*
X169004819Y-99523808D01*
X169004819Y-99238094D02*
X168004819Y-99238094D01*
X168004819Y-99238094D02*
X168147676Y-99333332D01*
X168147676Y-99333332D02*
X168242914Y-99428570D01*
X168242914Y-99428570D02*
X168290533Y-99523808D01*
X152285714Y-106004819D02*
X152285714Y-106719104D01*
X152285714Y-106719104D02*
X152238095Y-106861961D01*
X152238095Y-106861961D02*
X152142857Y-106957200D01*
X152142857Y-106957200D02*
X152000000Y-107004819D01*
X152000000Y-107004819D02*
X151904762Y-107004819D01*
X153095238Y-106481009D02*
X152761905Y-106481009D01*
X152761905Y-107004819D02*
X152761905Y-106004819D01*
X152761905Y-106004819D02*
X153238095Y-106004819D01*
X153571429Y-106719104D02*
X154047619Y-106719104D01*
X153476191Y-107004819D02*
X153809524Y-106004819D01*
X153809524Y-106004819D02*
X154142857Y-107004819D01*
X154476191Y-107004819D02*
X154476191Y-106004819D01*
X154476191Y-106004819D02*
X155047619Y-107004819D01*
X155047619Y-107004819D02*
X155047619Y-106004819D01*
X155476191Y-106100057D02*
X155523810Y-106052438D01*
X155523810Y-106052438D02*
X155619048Y-106004819D01*
X155619048Y-106004819D02*
X155857143Y-106004819D01*
X155857143Y-106004819D02*
X155952381Y-106052438D01*
X155952381Y-106052438D02*
X156000000Y-106100057D01*
X156000000Y-106100057D02*
X156047619Y-106195295D01*
X156047619Y-106195295D02*
X156047619Y-106290533D01*
X156047619Y-106290533D02*
X156000000Y-106433390D01*
X156000000Y-106433390D02*
X155428572Y-107004819D01*
X155428572Y-107004819D02*
X156047619Y-107004819D01*
X152704819Y-76678571D02*
X153419104Y-76678571D01*
X153419104Y-76678571D02*
X153561961Y-76726190D01*
X153561961Y-76726190D02*
X153657200Y-76821428D01*
X153657200Y-76821428D02*
X153704819Y-76964285D01*
X153704819Y-76964285D02*
X153704819Y-77059523D01*
X153704819Y-76202380D02*
X152704819Y-76202380D01*
X152704819Y-76202380D02*
X153419104Y-75869047D01*
X153419104Y-75869047D02*
X152704819Y-75535714D01*
X152704819Y-75535714D02*
X153704819Y-75535714D01*
X153800057Y-74392857D02*
X153752438Y-74488095D01*
X153752438Y-74488095D02*
X153657200Y-74583333D01*
X153657200Y-74583333D02*
X153514342Y-74726190D01*
X153514342Y-74726190D02*
X153466723Y-74821428D01*
X153466723Y-74821428D02*
X153466723Y-74916666D01*
X153704819Y-74869047D02*
X153657200Y-74964285D01*
X153657200Y-74964285D02*
X153561961Y-75059523D01*
X153561961Y-75059523D02*
X153371485Y-75107142D01*
X153371485Y-75107142D02*
X153038152Y-75107142D01*
X153038152Y-75107142D02*
X152847676Y-75059523D01*
X152847676Y-75059523D02*
X152752438Y-74964285D01*
X152752438Y-74964285D02*
X152704819Y-74869047D01*
X152704819Y-74869047D02*
X152704819Y-74678571D01*
X152704819Y-74678571D02*
X152752438Y-74583333D01*
X152752438Y-74583333D02*
X152847676Y-74488095D01*
X152847676Y-74488095D02*
X153038152Y-74440476D01*
X153038152Y-74440476D02*
X153371485Y-74440476D01*
X153371485Y-74440476D02*
X153561961Y-74488095D01*
X153561961Y-74488095D02*
X153657200Y-74583333D01*
X153657200Y-74583333D02*
X153704819Y-74678571D01*
X153704819Y-74678571D02*
X153704819Y-74869047D01*
X153704819Y-73488095D02*
X153704819Y-74059523D01*
X153704819Y-73773809D02*
X152704819Y-73773809D01*
X152704819Y-73773809D02*
X152847676Y-73869047D01*
X152847676Y-73869047D02*
X152942914Y-73964285D01*
X152942914Y-73964285D02*
X152990533Y-74059523D01*
X137286666Y-99151009D02*
X136953333Y-99151009D01*
X136953333Y-99674819D02*
X136953333Y-98674819D01*
X136953333Y-98674819D02*
X137429523Y-98674819D01*
X138334285Y-99674819D02*
X137762857Y-99674819D01*
X138048571Y-99674819D02*
X138048571Y-98674819D01*
X138048571Y-98674819D02*
X137953333Y-98817676D01*
X137953333Y-98817676D02*
X137858095Y-98912914D01*
X137858095Y-98912914D02*
X137762857Y-98960533D01*
X119066428Y-94557319D02*
X119066428Y-95271604D01*
X119066428Y-95271604D02*
X119018809Y-95414461D01*
X119018809Y-95414461D02*
X118923571Y-95509700D01*
X118923571Y-95509700D02*
X118780714Y-95557319D01*
X118780714Y-95557319D02*
X118685476Y-95557319D01*
X119542619Y-95557319D02*
X119542619Y-94557319D01*
X119542619Y-94557319D02*
X119923571Y-94557319D01*
X119923571Y-94557319D02*
X120018809Y-94604938D01*
X120018809Y-94604938D02*
X120066428Y-94652557D01*
X120066428Y-94652557D02*
X120114047Y-94747795D01*
X120114047Y-94747795D02*
X120114047Y-94890652D01*
X120114047Y-94890652D02*
X120066428Y-94985890D01*
X120066428Y-94985890D02*
X120018809Y-95033509D01*
X120018809Y-95033509D02*
X119923571Y-95081128D01*
X119923571Y-95081128D02*
X119542619Y-95081128D01*
X120733095Y-94557319D02*
X120923571Y-94557319D01*
X120923571Y-94557319D02*
X121018809Y-94604938D01*
X121018809Y-94604938D02*
X121114047Y-94700176D01*
X121114047Y-94700176D02*
X121161666Y-94890652D01*
X121161666Y-94890652D02*
X121161666Y-95223985D01*
X121161666Y-95223985D02*
X121114047Y-95414461D01*
X121114047Y-95414461D02*
X121018809Y-95509700D01*
X121018809Y-95509700D02*
X120923571Y-95557319D01*
X120923571Y-95557319D02*
X120733095Y-95557319D01*
X120733095Y-95557319D02*
X120637857Y-95509700D01*
X120637857Y-95509700D02*
X120542619Y-95414461D01*
X120542619Y-95414461D02*
X120495000Y-95223985D01*
X120495000Y-95223985D02*
X120495000Y-94890652D01*
X120495000Y-94890652D02*
X120542619Y-94700176D01*
X120542619Y-94700176D02*
X120637857Y-94604938D01*
X120637857Y-94604938D02*
X120733095Y-94557319D01*
X121495000Y-94557319D02*
X121733095Y-95557319D01*
X121733095Y-95557319D02*
X121923571Y-94843033D01*
X121923571Y-94843033D02*
X122114047Y-95557319D01*
X122114047Y-95557319D02*
X122352143Y-94557319D01*
X123256904Y-95557319D02*
X122685476Y-95557319D01*
X122971190Y-95557319D02*
X122971190Y-94557319D01*
X122971190Y-94557319D02*
X122875952Y-94700176D01*
X122875952Y-94700176D02*
X122780714Y-94795414D01*
X122780714Y-94795414D02*
X122685476Y-94843033D01*
X161204819Y-86916666D02*
X160728628Y-87249999D01*
X161204819Y-87488094D02*
X160204819Y-87488094D01*
X160204819Y-87488094D02*
X160204819Y-87107142D01*
X160204819Y-87107142D02*
X160252438Y-87011904D01*
X160252438Y-87011904D02*
X160300057Y-86964285D01*
X160300057Y-86964285D02*
X160395295Y-86916666D01*
X160395295Y-86916666D02*
X160538152Y-86916666D01*
X160538152Y-86916666D02*
X160633390Y-86964285D01*
X160633390Y-86964285D02*
X160681009Y-87011904D01*
X160681009Y-87011904D02*
X160728628Y-87107142D01*
X160728628Y-87107142D02*
X160728628Y-87488094D01*
X161204819Y-85964285D02*
X161204819Y-86535713D01*
X161204819Y-86249999D02*
X160204819Y-86249999D01*
X160204819Y-86249999D02*
X160347676Y-86345237D01*
X160347676Y-86345237D02*
X160442914Y-86440475D01*
X160442914Y-86440475D02*
X160490533Y-86535713D01*
X158834819Y-87869047D02*
X158358628Y-88202380D01*
X158834819Y-88440475D02*
X157834819Y-88440475D01*
X157834819Y-88440475D02*
X157834819Y-88059523D01*
X157834819Y-88059523D02*
X157882438Y-87964285D01*
X157882438Y-87964285D02*
X157930057Y-87916666D01*
X157930057Y-87916666D02*
X158025295Y-87869047D01*
X158025295Y-87869047D02*
X158168152Y-87869047D01*
X158168152Y-87869047D02*
X158263390Y-87916666D01*
X158263390Y-87916666D02*
X158311009Y-87964285D01*
X158311009Y-87964285D02*
X158358628Y-88059523D01*
X158358628Y-88059523D02*
X158358628Y-88440475D01*
X157930057Y-87488094D02*
X157882438Y-87440475D01*
X157882438Y-87440475D02*
X157834819Y-87345237D01*
X157834819Y-87345237D02*
X157834819Y-87107142D01*
X157834819Y-87107142D02*
X157882438Y-87011904D01*
X157882438Y-87011904D02*
X157930057Y-86964285D01*
X157930057Y-86964285D02*
X158025295Y-86916666D01*
X158025295Y-86916666D02*
X158120533Y-86916666D01*
X158120533Y-86916666D02*
X158263390Y-86964285D01*
X158263390Y-86964285D02*
X158834819Y-87535713D01*
X158834819Y-87535713D02*
X158834819Y-86916666D01*
X157930057Y-86535713D02*
X157882438Y-86488094D01*
X157882438Y-86488094D02*
X157834819Y-86392856D01*
X157834819Y-86392856D02*
X157834819Y-86154761D01*
X157834819Y-86154761D02*
X157882438Y-86059523D01*
X157882438Y-86059523D02*
X157930057Y-86011904D01*
X157930057Y-86011904D02*
X158025295Y-85964285D01*
X158025295Y-85964285D02*
X158120533Y-85964285D01*
X158120533Y-85964285D02*
X158263390Y-86011904D01*
X158263390Y-86011904D02*
X158834819Y-86583332D01*
X158834819Y-86583332D02*
X158834819Y-85964285D01*
X157834819Y-85345237D02*
X157834819Y-85249999D01*
X157834819Y-85249999D02*
X157882438Y-85154761D01*
X157882438Y-85154761D02*
X157930057Y-85107142D01*
X157930057Y-85107142D02*
X158025295Y-85059523D01*
X158025295Y-85059523D02*
X158215771Y-85011904D01*
X158215771Y-85011904D02*
X158453866Y-85011904D01*
X158453866Y-85011904D02*
X158644342Y-85059523D01*
X158644342Y-85059523D02*
X158739580Y-85107142D01*
X158739580Y-85107142D02*
X158787200Y-85154761D01*
X158787200Y-85154761D02*
X158834819Y-85249999D01*
X158834819Y-85249999D02*
X158834819Y-85345237D01*
X158834819Y-85345237D02*
X158787200Y-85440475D01*
X158787200Y-85440475D02*
X158739580Y-85488094D01*
X158739580Y-85488094D02*
X158644342Y-85535713D01*
X158644342Y-85535713D02*
X158453866Y-85583332D01*
X158453866Y-85583332D02*
X158215771Y-85583332D01*
X158215771Y-85583332D02*
X158025295Y-85535713D01*
X158025295Y-85535713D02*
X157930057Y-85488094D01*
X157930057Y-85488094D02*
X157882438Y-85440475D01*
X157882438Y-85440475D02*
X157834819Y-85345237D01*
X145704819Y-77107142D02*
X146419104Y-77107142D01*
X146419104Y-77107142D02*
X146561961Y-77154761D01*
X146561961Y-77154761D02*
X146657200Y-77249999D01*
X146657200Y-77249999D02*
X146704819Y-77392856D01*
X146704819Y-77392856D02*
X146704819Y-77488094D01*
X146181009Y-76297618D02*
X146228628Y-76154761D01*
X146228628Y-76154761D02*
X146276247Y-76107142D01*
X146276247Y-76107142D02*
X146371485Y-76059523D01*
X146371485Y-76059523D02*
X146514342Y-76059523D01*
X146514342Y-76059523D02*
X146609580Y-76107142D01*
X146609580Y-76107142D02*
X146657200Y-76154761D01*
X146657200Y-76154761D02*
X146704819Y-76249999D01*
X146704819Y-76249999D02*
X146704819Y-76630951D01*
X146704819Y-76630951D02*
X145704819Y-76630951D01*
X145704819Y-76630951D02*
X145704819Y-76297618D01*
X145704819Y-76297618D02*
X145752438Y-76202380D01*
X145752438Y-76202380D02*
X145800057Y-76154761D01*
X145800057Y-76154761D02*
X145895295Y-76107142D01*
X145895295Y-76107142D02*
X145990533Y-76107142D01*
X145990533Y-76107142D02*
X146085771Y-76154761D01*
X146085771Y-76154761D02*
X146133390Y-76202380D01*
X146133390Y-76202380D02*
X146181009Y-76297618D01*
X146181009Y-76297618D02*
X146181009Y-76630951D01*
X145704819Y-75630951D02*
X146514342Y-75630951D01*
X146514342Y-75630951D02*
X146609580Y-75583332D01*
X146609580Y-75583332D02*
X146657200Y-75535713D01*
X146657200Y-75535713D02*
X146704819Y-75440475D01*
X146704819Y-75440475D02*
X146704819Y-75249999D01*
X146704819Y-75249999D02*
X146657200Y-75154761D01*
X146657200Y-75154761D02*
X146609580Y-75107142D01*
X146609580Y-75107142D02*
X146514342Y-75059523D01*
X146514342Y-75059523D02*
X145704819Y-75059523D01*
X146609580Y-74011904D02*
X146657200Y-74059523D01*
X146657200Y-74059523D02*
X146704819Y-74202380D01*
X146704819Y-74202380D02*
X146704819Y-74297618D01*
X146704819Y-74297618D02*
X146657200Y-74440475D01*
X146657200Y-74440475D02*
X146561961Y-74535713D01*
X146561961Y-74535713D02*
X146466723Y-74583332D01*
X146466723Y-74583332D02*
X146276247Y-74630951D01*
X146276247Y-74630951D02*
X146133390Y-74630951D01*
X146133390Y-74630951D02*
X145942914Y-74583332D01*
X145942914Y-74583332D02*
X145847676Y-74535713D01*
X145847676Y-74535713D02*
X145752438Y-74440475D01*
X145752438Y-74440475D02*
X145704819Y-74297618D01*
X145704819Y-74297618D02*
X145704819Y-74202380D01*
X145704819Y-74202380D02*
X145752438Y-74059523D01*
X145752438Y-74059523D02*
X145800057Y-74011904D01*
X146704819Y-73583332D02*
X145704819Y-73583332D01*
X146704819Y-73011904D02*
X146133390Y-73440475D01*
X145704819Y-73011904D02*
X146276247Y-73583332D01*
X146704819Y-72059523D02*
X146704819Y-72630951D01*
X146704819Y-72345237D02*
X145704819Y-72345237D01*
X145704819Y-72345237D02*
X145847676Y-72440475D01*
X145847676Y-72440475D02*
X145942914Y-72535713D01*
X145942914Y-72535713D02*
X145990533Y-72630951D01*
X167704819Y-88690476D02*
X168419104Y-88690476D01*
X168419104Y-88690476D02*
X168561961Y-88738095D01*
X168561961Y-88738095D02*
X168657200Y-88833333D01*
X168657200Y-88833333D02*
X168704819Y-88976190D01*
X168704819Y-88976190D02*
X168704819Y-89071428D01*
X168704819Y-87738095D02*
X168704819Y-88214285D01*
X168704819Y-88214285D02*
X167704819Y-88214285D01*
X168181009Y-87404761D02*
X168181009Y-87071428D01*
X168704819Y-86928571D02*
X168704819Y-87404761D01*
X168704819Y-87404761D02*
X167704819Y-87404761D01*
X167704819Y-87404761D02*
X167704819Y-86928571D01*
X168704819Y-86499999D02*
X167704819Y-86499999D01*
X167704819Y-86499999D02*
X167704819Y-86261904D01*
X167704819Y-86261904D02*
X167752438Y-86119047D01*
X167752438Y-86119047D02*
X167847676Y-86023809D01*
X167847676Y-86023809D02*
X167942914Y-85976190D01*
X167942914Y-85976190D02*
X168133390Y-85928571D01*
X168133390Y-85928571D02*
X168276247Y-85928571D01*
X168276247Y-85928571D02*
X168466723Y-85976190D01*
X168466723Y-85976190D02*
X168561961Y-86023809D01*
X168561961Y-86023809D02*
X168657200Y-86119047D01*
X168657200Y-86119047D02*
X168704819Y-86261904D01*
X168704819Y-86261904D02*
X168704819Y-86499999D01*
X168704819Y-84976190D02*
X168704819Y-85547618D01*
X168704819Y-85261904D02*
X167704819Y-85261904D01*
X167704819Y-85261904D02*
X167847676Y-85357142D01*
X167847676Y-85357142D02*
X167942914Y-85452380D01*
X167942914Y-85452380D02*
X167990533Y-85547618D01*
X162204819Y-76528095D02*
X162919104Y-76528095D01*
X162919104Y-76528095D02*
X163061961Y-76575714D01*
X163061961Y-76575714D02*
X163157200Y-76670952D01*
X163157200Y-76670952D02*
X163204819Y-76813809D01*
X163204819Y-76813809D02*
X163204819Y-76909047D01*
X163204819Y-76051904D02*
X162204819Y-76051904D01*
X162204819Y-76051904D02*
X162204819Y-75813809D01*
X162204819Y-75813809D02*
X162252438Y-75670952D01*
X162252438Y-75670952D02*
X162347676Y-75575714D01*
X162347676Y-75575714D02*
X162442914Y-75528095D01*
X162442914Y-75528095D02*
X162633390Y-75480476D01*
X162633390Y-75480476D02*
X162776247Y-75480476D01*
X162776247Y-75480476D02*
X162966723Y-75528095D01*
X162966723Y-75528095D02*
X163061961Y-75575714D01*
X163061961Y-75575714D02*
X163157200Y-75670952D01*
X163157200Y-75670952D02*
X163204819Y-75813809D01*
X163204819Y-75813809D02*
X163204819Y-76051904D01*
X163204819Y-75051904D02*
X162204819Y-75051904D01*
X162681009Y-75051904D02*
X162681009Y-74480476D01*
X163204819Y-74480476D02*
X162204819Y-74480476D01*
X162204819Y-74147142D02*
X162204819Y-73575714D01*
X163204819Y-73861428D02*
X162204819Y-73861428D01*
X163204819Y-72718571D02*
X163204819Y-73289999D01*
X163204819Y-73004285D02*
X162204819Y-73004285D01*
X162204819Y-73004285D02*
X162347676Y-73099523D01*
X162347676Y-73099523D02*
X162442914Y-73194761D01*
X162442914Y-73194761D02*
X162490533Y-73289999D01*
%TO.C,U1*%
D12*
X108660000Y-70120000D02*
X108660000Y-91730000D01*
X136220000Y-91320000D02*
X143120000Y-91320000D01*
X136220000Y-93860000D02*
X110790000Y-93860000D01*
X136220000Y-93860000D02*
X136220000Y-91320000D01*
X143120000Y-68000000D02*
X110790000Y-68000000D01*
X143120000Y-91320000D02*
X143120000Y-68000000D01*
X108660000Y-70130000D02*
G75*
G02*
X110790000Y-68000000I2130000J0D01*
G01*
X110790000Y-93860000D02*
G75*
G02*
X108660000Y-91730000I2J2130002D01*
G01*
D11*
X116365000Y-94900000D02*
X117635000Y-94900000D01*
X117000000Y-94265000D01*
X116365000Y-94900000D01*
G36*
X117635000Y-94900000D02*
G01*
X116365000Y-94900000D01*
X117000000Y-94265000D01*
X117635000Y-94900000D01*
G37*
%TO.C,JFAN1*%
D12*
X161600000Y-95650000D02*
X167600000Y-95650000D01*
X161600000Y-105950000D02*
X161600000Y-95650000D01*
X161700000Y-97000000D02*
X162710000Y-97000000D01*
X162710000Y-97000000D02*
X162710000Y-102080000D01*
X162710000Y-102080000D02*
X161700000Y-102080000D01*
X167550000Y-102750000D02*
X167550000Y-105950000D01*
X167550000Y-105950000D02*
X161600000Y-105950000D01*
X167600000Y-95650000D02*
X167600000Y-101400000D01*
%TO.C,JFAN2*%
X149050000Y-99600000D02*
X159350000Y-99600000D01*
X149050000Y-105550000D02*
X149050000Y-99600000D01*
X152250000Y-105550000D02*
X149050000Y-105550000D01*
X152920000Y-100710000D02*
X152920000Y-99700000D01*
X158000000Y-99700000D02*
X158000000Y-100710000D01*
X158000000Y-100710000D02*
X152920000Y-100710000D01*
X159350000Y-99600000D02*
X159350000Y-105600000D01*
X159350000Y-105600000D02*
X153600000Y-105600000D01*
%TO.C,JMQ1*%
X154370000Y-69620000D02*
X155750000Y-69620000D01*
X154370000Y-71000000D02*
X154370000Y-69620000D01*
X154370000Y-72270000D02*
X154370000Y-80000000D01*
X154370000Y-72270000D02*
X157130000Y-72270000D01*
X154370000Y-80000000D02*
X157130000Y-80000000D01*
X157130000Y-72270000D02*
X157130000Y-80000000D01*
%TO.C,F1*%
X127650000Y-100200000D02*
X132240000Y-100200000D01*
X127650000Y-106200000D02*
X127650000Y-100200000D01*
X133860000Y-100200000D02*
X141430000Y-100200000D01*
X143070000Y-100200000D02*
X147650000Y-100200000D01*
X147650000Y-100200000D02*
X147650000Y-106200000D01*
X147650000Y-106200000D02*
X127650000Y-106200000D01*
%TO.C,JPOW1*%
X115795000Y-96102500D02*
X126195000Y-96102500D01*
X115795000Y-99122500D02*
X126195000Y-99122500D01*
X115795000Y-104022500D02*
X126195000Y-104022500D01*
X115795000Y-105522500D02*
X126195000Y-105522500D01*
X115795000Y-106142500D02*
X115795000Y-96102500D01*
X118155000Y-106142500D02*
X115795000Y-106142500D01*
X126195000Y-96102500D02*
X126195000Y-106142500D01*
X126195000Y-106142500D02*
X118755000Y-106142500D01*
X118455000Y-106142500D02*
X118895000Y-106752500D01*
X118015000Y-106752500D01*
X118455000Y-106142500D01*
G36*
X118895000Y-106752500D02*
G01*
X118015000Y-106752500D01*
X118455000Y-106142500D01*
X118895000Y-106752500D01*
G37*
%TO.C,R1*%
X159380000Y-83480000D02*
X159380000Y-90020000D01*
X159380000Y-90020000D02*
X159710000Y-90020000D01*
X159710000Y-83480000D02*
X159380000Y-83480000D01*
X161790000Y-83480000D02*
X162120000Y-83480000D01*
X162120000Y-83480000D02*
X162120000Y-90020000D01*
X162120000Y-90020000D02*
X161790000Y-90020000D01*
%TO.C,JBUCK1*%
X147370000Y-77350000D02*
X147370000Y-69620000D01*
X150130000Y-69620000D02*
X147370000Y-69620000D01*
X150130000Y-77350000D02*
X147370000Y-77350000D01*
X150130000Y-77350000D02*
X150130000Y-69620000D01*
X150130000Y-78620000D02*
X150130000Y-80000000D01*
X150130000Y-80000000D02*
X148750000Y-80000000D01*
%TO.C,JLED1*%
X163500000Y-90850000D02*
X163500000Y-92100000D01*
X163500000Y-92100000D02*
X164750000Y-92100000D01*
X166050000Y-81700000D02*
X166050000Y-82450000D01*
X166050000Y-82450000D02*
X169000000Y-82450000D01*
X166050000Y-91050000D02*
X169000000Y-91050000D01*
X166050000Y-91800000D02*
X166050000Y-91050000D01*
X169000000Y-82450000D02*
X169000000Y-86750000D01*
X169000000Y-91050000D02*
X169000000Y-86750000D01*
X163790000Y-81690000D02*
X169760000Y-81690000D01*
X169760000Y-91810000D01*
X163790000Y-91810000D01*
X163790000Y-81690000D01*
X163800000Y-81700000D02*
X164550000Y-81700000D01*
X164550000Y-83500000D01*
X163800000Y-83500000D01*
X163800000Y-81700000D01*
X163800000Y-85000000D02*
X164550000Y-85000000D01*
X164550000Y-88500000D01*
X163800000Y-88500000D01*
X163800000Y-85000000D01*
X163800000Y-90000000D02*
X164550000Y-90000000D01*
X164550000Y-91800000D01*
X163800000Y-91800000D01*
X163800000Y-90000000D01*
%TO.C,JDHT1*%
X164120000Y-70330000D02*
X165500000Y-70330000D01*
X164120000Y-71710000D02*
X164120000Y-70330000D01*
X164120000Y-72980000D02*
X164120000Y-78170000D01*
X164120000Y-72980000D02*
X166880000Y-72980000D01*
X164120000Y-78170000D02*
X166880000Y-78170000D01*
X166880000Y-72980000D02*
X166880000Y-78170000D01*
%TD*%
M02*
