%TF.GenerationSoftware,KiCad,Pcbnew,10.0.6*%
%TF.CreationDate,2026-10-03T14:51:26-04:00*%
%TF.ProjectId,board,626f6172-642e-46b6-9963-61645f706362,rev?*%
%TF.SameCoordinates,Original*%
%TF.FileFunction,Copper,L1,Top*%
%TF.FilePolarity,Positive*%
%FSLAX46Y46*%
G04 Gerber Fmt 4.6, Leading zero omitted, Abs format (unit mm)*
G04 Created by KiCad (PCBNEW 10.0.6) date 2026-10-03 14:51:26*
%MOMM*%
%LPD*%
G01*
G04 APERTURE LIST*
G04 Aperture macros list*
%AMRoundRect*
0 Rectangle with rounded corners*
0 $1 Rounding radius*
0 $2 $3 $4 $5 $6 $7 $8 $9 X,Y pos of 4 corners*
0 Add a 4 corners polygon primitive as box body*
4,1,4,$2,$3,$4,$5,$6,$7,$8,$9,$2,$3,0*
0 Add four circle primitives for the rounded corners*
1,1,$1+$1,$2,$3*
1,1,$1+$1,$4,$5*
1,1,$1+$1,$6,$7*
1,1,$1+$1,$8,$9*
0 Add four rect primitives between the rounded corners*
20,1,$1+$1,$2,$3,$4,$5,0*
20,1,$1+$1,$4,$5,$6,$7,0*
20,1,$1+$1,$6,$7,$8,$9,0*
20,1,$1+$1,$8,$9,$2,$3,0*%
G04 Aperture macros list end*
%TA.AperFunction,ComponentPad*%
%ADD10R,2.000000X2.000000*%
%TD*%
%TA.AperFunction,ComponentPad*%
%ADD11O,1.600000X2.000000*%
%TD*%
%TA.AperFunction,ComponentPad*%
%ADD12R,2.030000X1.730000*%
%TD*%
%TA.AperFunction,ComponentPad*%
%ADD13O,2.030000X1.730000*%
%TD*%
%TA.AperFunction,ComponentPad*%
%ADD14R,1.730000X2.030000*%
%TD*%
%TA.AperFunction,ComponentPad*%
%ADD15O,1.730000X2.030000*%
%TD*%
%TA.AperFunction,ComponentPad*%
%ADD16R,1.700000X1.700000*%
%TD*%
%TA.AperFunction,ComponentPad*%
%ADD17C,1.700000*%
%TD*%
%TA.AperFunction,ComponentPad*%
%ADD18C,3.500000*%
%TD*%
%TA.AperFunction,ComponentPad*%
%ADD19RoundRect,0.250000X-1.050000X-1.050000X1.050000X-1.050000X1.050000X1.050000X-1.050000X1.050000X0*%
%TD*%
%TA.AperFunction,ComponentPad*%
%ADD20C,2.600000*%
%TD*%
%TA.AperFunction,ComponentPad*%
%ADD21C,1.600000*%
%TD*%
%TA.AperFunction,ComponentPad*%
%ADD22RoundRect,0.250000X0.725000X-0.600000X0.725000X0.600000X-0.725000X0.600000X-0.725000X-0.600000X0*%
%TD*%
%TA.AperFunction,ComponentPad*%
%ADD23O,1.950000X1.700000*%
%TD*%
%TA.AperFunction,Conductor*%
%ADD24C,0.200000*%
%TD*%
%TA.AperFunction,Conductor*%
%ADD25C,1.500000*%
%TD*%
G04 APERTURE END LIST*
D10*
%TO.P,U1,1,~{RST}_1*%
%TO.N,unconnected-(U1-~{RST}-Pad1)*%
X117000000Y-92360000D03*
D11*
%TO.P,U1,2,A0_2*%
%TO.N,/AO*%
X119540000Y-92360000D03*
%TO.P,U1,3,D0_3*%
%TO.N,unconnected-(U1-D0-Pad3)*%
X122080000Y-92360000D03*
%TO.P,U1,4,SCK/D5_4*%
%TO.N,/LED_DATA*%
X124620000Y-92360000D03*
%TO.P,U1,5,MISO/D6_5*%
%TO.N,/DHT_DATA*%
X127160000Y-92360000D03*
%TO.P,U1,6,MOSI/D7_6*%
%TO.N,unconnected-(U1-MOSI{slash}D7-Pad6)*%
X129700000Y-92360000D03*
%TO.P,U1,7,CS/D8_7*%
%TO.N,unconnected-(U1-CS{slash}D8-Pad7)*%
X132240000Y-92360000D03*
%TO.P,U1,8,3V3_8*%
%TO.N,unconnected-(U1-3V3-Pad8)*%
X134780000Y-92360000D03*
%TO.P,U1,9,5V_9*%
%TO.N,+5V*%
X134780000Y-69500000D03*
%TO.P,U1,10,GND_10*%
%TO.N,GND*%
X132240000Y-69500000D03*
%TO.P,U1,11,D4_11*%
%TO.N,unconnected-(U1-D4-Pad11)*%
X129700000Y-69500000D03*
%TO.P,U1,12,D3_12*%
%TO.N,unconnected-(U1-D3-Pad12)*%
X127160000Y-69500000D03*
%TO.P,U1,13,SDA/D2_13*%
%TO.N,/PWM_2*%
X124620000Y-69500000D03*
%TO.P,U1,14,SCL/D1_14*%
%TO.N,/PWM_1*%
X122080000Y-69500000D03*
%TO.P,U1,15,RX_15*%
%TO.N,unconnected-(U1-RX-Pad15)*%
X119540000Y-69500000D03*
%TO.P,U1,16,TX_16*%
%TO.N,unconnected-(U1-TX-Pad16)*%
X117000000Y-69500000D03*
%TD*%
D12*
%TO.P,JFAN1,1,Pin_1_1*%
%TO.N,GND*%
X165000000Y-97000000D03*
D13*
%TO.P,JFAN1,2,Pin_2_2*%
%TO.N,+12V*%
X165000000Y-99540000D03*
%TO.P,JFAN1,3,Pin_3_3*%
%TO.N,unconnected-(JFAN1-Pin_3-Pad3)*%
X165000000Y-102080000D03*
%TO.P,JFAN1,4,Pin_4_4*%
%TO.N,/PWM_1*%
X165000000Y-104620000D03*
%TD*%
D14*
%TO.P,JFAN2,1,Pin_1_1*%
%TO.N,GND*%
X158000000Y-103000000D03*
D15*
%TO.P,JFAN2,2,Pin_2_2*%
%TO.N,+12V*%
X155460000Y-103000000D03*
%TO.P,JFAN2,3,Pin_3_3*%
%TO.N,unconnected-(JFAN2-Pin_3-Pad3)*%
X152920000Y-103000000D03*
%TO.P,JFAN2,4,Pin_4_4*%
%TO.N,/PWM_2*%
X150380000Y-103000000D03*
%TD*%
D16*
%TO.P,JMQ1,1,Pin_1_1*%
%TO.N,+5V*%
X155750000Y-71000000D03*
D17*
%TO.P,JMQ1,2,Pin_2_2*%
%TO.N,GND*%
X155750000Y-73540000D03*
%TO.P,JMQ1,3,Pin_3_3*%
%TO.N,unconnected-(JMQ1-Pin_3-Pad3)*%
X155750000Y-76080000D03*
%TO.P,JMQ1,4,Pin_4_4*%
%TO.N,/AO*%
X155750000Y-78620000D03*
%TD*%
D18*
%TO.P,F1,1*%
%TO.N,Net-(JPOW1-Pin_1)*%
X133050000Y-102000000D03*
%TO.P,F1,2*%
%TO.N,+12V*%
X142250000Y-102000000D03*
%TD*%
D19*
%TO.P,JPOW1,1,Pin_1_1*%
%TO.N,Net-(JPOW1-Pin_1)*%
X118455000Y-101422500D03*
D20*
%TO.P,JPOW1,2,Pin_2_2*%
%TO.N,GND*%
X123535000Y-101422500D03*
%TD*%
D21*
%TO.P,R1,1*%
%TO.N,/LED_R*%
X160750000Y-82940000D03*
%TO.P,R1,2*%
%TO.N,/LED_DATA*%
X160750000Y-90560000D03*
%TD*%
D16*
%TO.P,JBUCK1,1,Pin_1_1*%
%TO.N,+12V*%
X148750000Y-78620000D03*
D17*
%TO.P,JBUCK1,2,Pin_2_2*%
%TO.N,GND*%
X148750000Y-76080000D03*
%TO.P,JBUCK1,3,Pin_3_3*%
%TO.N,+5V*%
X148750000Y-73540000D03*
%TO.P,JBUCK1,4,Pin_4_4*%
%TO.N,GND*%
X148750000Y-71000000D03*
%TD*%
D22*
%TO.P,JLED1,1,Pin_1_1*%
%TO.N,+12V*%
X166250000Y-89250000D03*
D23*
%TO.P,JLED1,2,Pin_2_2*%
%TO.N,/LED_R*%
X166250000Y-86750000D03*
%TO.P,JLED1,3,Pin_3_3*%
%TO.N,GND*%
X166250000Y-84250000D03*
%TD*%
D16*
%TO.P,JDHT1,1,Pin_1_1*%
%TO.N,+5V*%
X165500000Y-71710000D03*
D17*
%TO.P,JDHT1,2,Pin_2_2*%
%TO.N,/DHT_DATA*%
X165500000Y-74250000D03*
%TO.P,JDHT1,3,Pin_3_3*%
%TO.N,GND*%
X165500000Y-76790000D03*
%TD*%
%TO.N,/AO*%
D24*
X132122400Y-80466200D02*
X153903800Y-80466200D01*
X153903800Y-80466200D02*
X155750000Y-78620000D01*
X120641700Y-91946900D02*
X132122400Y-80466200D01*
X119540000Y-92360000D02*
X120641700Y-92360000D01*
X120641700Y-92360000D02*
X120641700Y-91946900D01*
%TO.N,/LED_DATA*%
X125721700Y-92773100D02*
X126614400Y-93665800D01*
X126614400Y-93665800D02*
X157644200Y-93665800D01*
X124620000Y-92360000D02*
X125721700Y-92360000D01*
X157644200Y-93665800D02*
X160750000Y-90560000D01*
X125721700Y-92360000D02*
X125721700Y-92773100D01*
%TO.N,/DHT_DATA*%
X139340700Y-80867900D02*
X158882100Y-80867900D01*
X158882100Y-80867900D02*
X165500000Y-74250000D01*
X128261700Y-91946900D02*
X139340700Y-80867900D01*
X128261700Y-92360000D02*
X128261700Y-91946900D01*
X127160000Y-92360000D02*
X128261700Y-92360000D01*
%TO.N,+5V*%
D25*
X155750000Y-71000000D02*
X153648300Y-71000000D01*
X165500000Y-71710000D02*
X163398300Y-71710000D01*
X134780000Y-69500000D02*
X136831700Y-69500000D01*
X136831700Y-69500000D02*
X140871700Y-73540000D01*
X140871700Y-73540000D02*
X148750000Y-73540000D01*
X151108300Y-73540000D02*
X148750000Y-73540000D01*
X162688300Y-71000000D02*
X155750000Y-71000000D01*
X163398300Y-71710000D02*
X162688300Y-71000000D01*
X153648300Y-71000000D02*
X151108300Y-73540000D01*
%TO.N,+12V*%
X142250000Y-102000000D02*
X143516700Y-100733300D01*
X155460000Y-100733300D02*
X156653300Y-99540000D01*
X156653300Y-99540000D02*
X165000000Y-99540000D01*
X155460000Y-103000000D02*
X155460000Y-100733300D01*
X143516700Y-100733300D02*
X155460000Y-100733300D01*
%TO.N,Net-(JPOW1-Pin_1)*%
X129800000Y-105250000D02*
X133050000Y-102000000D01*
X122282000Y-105250000D02*
X129800000Y-105250000D01*
X118455000Y-101422000D02*
X122282000Y-105250000D01*
%TD*%
M02*
